<svg width="64" height="64" viewBox="0 0 64 64" fill="none" xmlns="http://www.w3.org/2000/svg">
<path d="M15.2912 44V36.7557C15.2912 34.6723 15.6818 32.5062 16.4631 30.2571C17.268 27.9844 18.357 25.8419 19.7301 23.8295C21.1269 21.7936 22.6894 20.0772 24.4176 18.6804L30.3835 22.5511C28.9867 24.6581 27.8149 26.8598 26.8679 29.1562C25.9446 31.429 25.4948 33.9384 25.5185 36.6847V44H15.2912ZM33.2955 44V36.7557C33.2955 34.6723 33.6861 32.5062 34.4673 30.2571C35.2723 27.9844 36.3613 25.8419 37.7344 23.8295C39.1312 21.7936 40.6937 20.0772 42.4219 18.6804L48.3878 22.5511C46.991 24.6581 45.8191 26.8598 44.8722 29.1562C43.9489 31.429 43.4991 33.9384 43.5227 36.6847V44H33.2955Z" fill="#272727"/>
</svg>
