<?xml version="1.0" standalone="no"?>
<!DOCTYPE svg PUBLIC "-//W3C//DTD SVG 20010904//EN"
 "http://www.w3.org/TR/2001/REC-SVG-20010904/DTD/svg10.dtd">
<svg version="1.0" xmlns="http://www.w3.org/2000/svg"
 width="512.000000pt" height="512.000000pt" viewBox="0 0 512.000000 512.000000"
 preserveAspectRatio="xMidYMid meet">

<g transform="translate(0.000000,512.000000) scale(0.100000,-0.100000)"
fill="#000000" stroke="none">
<path d="M1685 4694 c-123 -16 -187 -29 -260 -54 -660 -223 -1221 -1050 -1380
-2032 -64 -400 -57 -783 20 -1108 36 -150 60 -220 120 -346 209 -444 573 -690
1080 -729 217 -16 478 54 692 186 108 67 281 235 348 339 151 232 223 513 197
766 -58 560 -453 980 -1017 1078 -117 21 -328 21 -435 0 -46 -8 -121 -28 -167
-43 -62 -21 -83 -25 -83 -15 0 27 103 322 152 434 199 461 448 723 758 800 96
24 135 47 152 89 19 50 138 482 138 502 0 35 -41 97 -74 113 -31 14 -186 27
-241 20z"/>
<path d="M4295 4694 c-123 -16 -187 -29 -260 -54 -738 -250 -1335 -1239 -1415
-2350 -38 -515 61 -989 276 -1317 65 -101 238 -278 327 -337 235 -153 564
-236 827 -206 673 76 1153 689 1056 1348 -58 391 -295 722 -641 895 -181 91
-325 127 -536 134 -178 6 -293 -9 -434 -56 -47 -16 -85 -26 -85 -23 0 12 45
155 77 247 149 424 349 727 580 881 90 61 161 92 271 119 127 31 123 23 217
364 59 212 63 245 30 294 -9 14 -31 32 -48 40 -32 15 -186 28 -242 21z"/>
</g>
</svg>
