<svg width="504" height="477" viewBox="0 0 504 477" fill="none" xmlns="http://www.w3.org/2000/svg">
<path d="M422.934 333.898C427.241 333.898 430.733 330.406 430.733 326.099C430.733 321.791 427.241 318.3 422.934 318.3C418.627 318.3 415.135 321.791 415.135 326.099C415.135 330.406 418.627 333.898 422.934 333.898Z" fill="white"/>
<path d="M399.458 338.023C403.766 338.023 407.258 334.531 407.258 330.223C407.258 325.916 403.766 322.424 399.458 322.424C395.151 322.424 391.659 325.916 391.659 330.223C391.659 334.531 395.151 338.023 399.458 338.023Z" fill="white"/>
<path d="M225.466 138.44C226.412 141.805 226.122 145.397 224.647 148.566C223.976 149.965 222.915 151.14 221.593 151.952C220.271 152.763 218.742 153.176 217.191 153.14C207.964 153.14 206.484 138.52 212.194 133.1C216.028 129.398 223.246 130.429 225.466 138.44Z" fill="#E3E3E3"/>
<path d="M436.101 259.607C434.329 258.761 429.994 260.558 424.574 266.745C418.982 273.374 414.468 280.842 411.196 288.874C408.235 296.382 408.79 300.612 410.429 301.828C399.563 295.272 338.279 255.403 327.678 248.476L319.746 253.764C322.39 245.541 326.223 222.619 327.916 214.106C329.713 210.035 331.432 206.175 333.018 202.844L349.357 197.9C360.514 204.509 419.392 246.387 436.101 259.607Z" fill="#E3E3E3"/>
<path d="M255.526 215.957C289.129 173.656 297.034 163.213 304.807 158.639C313.029 153.748 318.369 152.056 420.315 123.608C418.438 124.296 417.037 128.473 417.407 136.828C417.859 145.785 419.358 154.658 421.875 163.266C424.308 171.197 427.163 174.37 429.199 174.211C409.608 179.499 377.327 189.572 332.963 202.923C318.079 234.649 293.306 301.644 258.936 305.398C253.464 304.684 247.462 303.759 242.465 302.754C264.938 301.644 263.061 296.938 259.095 296.911C250.608 296.911 232.366 296.356 230.885 296.647C227.898 297.613 225.053 298.973 222.425 300.692C225.915 285.384 221.817 285.014 220.389 289.006C219.264 292.077 217.884 295.048 216.265 297.889C209.797 292.509 204.243 286.117 199.82 278.96C211.083 267.512 213.753 245.304 210.052 234.808C218.01 231.344 254.204 216.407 255.526 215.957Z" fill="#E3E3E3"/>
<path d="M452.675 396.398C444.294 348.677 448.154 370.7 439.641 322.371C438.893 318.174 436.511 314.444 433.017 312C429.523 309.557 425.202 308.599 421.002 309.337L167.83 353.912C167.706 353.934 167.588 353.981 167.483 354.049C167.378 354.117 167.287 354.205 167.215 354.308C167.144 354.411 167.094 354.527 167.068 354.65C167.042 354.773 167.04 354.899 167.063 355.023L163.996 355.578L165.873 358.565H153.764C153.771 358.392 153.731 358.221 153.648 358.069C153.565 357.918 153.442 357.792 153.292 357.705C153.143 357.618 152.972 357.573 152.799 357.575C152.626 357.578 152.457 357.628 152.31 357.719C149.536 359.402 147.331 361.879 145.983 364.831C144.634 367.782 144.204 371.071 144.749 374.27C149.481 401.21 154.875 431.879 157.783 448.297C158.531 452.496 160.912 456.228 164.406 458.676C167.899 461.123 172.22 462.088 176.422 461.357L439.641 414.958C443.819 414.203 447.531 411.831 449.972 408.356C452.412 404.882 453.383 400.585 452.675 396.398ZM423.064 319.067C424.471 319.067 425.846 319.484 427.016 320.265C428.185 321.047 429.097 322.157 429.635 323.457C430.173 324.756 430.314 326.186 430.04 327.566C429.765 328.945 429.088 330.213 428.093 331.207C427.099 332.202 425.832 332.879 424.452 333.154C423.072 333.428 421.642 333.287 420.343 332.749C419.043 332.211 417.933 331.299 417.151 330.13C416.37 328.96 415.953 327.585 415.953 326.178C415.953 324.292 416.702 322.483 418.036 321.15C419.369 319.816 421.178 319.067 423.064 319.067ZM399.534 323.217C400.941 323.217 402.316 323.634 403.486 324.416C404.655 325.197 405.567 326.308 406.105 327.608C406.643 328.907 406.784 330.337 406.51 331.717C406.235 333.096 405.558 334.363 404.563 335.358C403.569 336.353 402.301 337.03 400.922 337.304C399.542 337.579 398.112 337.438 396.813 336.9C395.513 336.361 394.403 335.45 393.621 334.28C392.84 333.111 392.423 331.736 392.423 330.329C392.419 329.394 392.601 328.468 392.957 327.603C393.313 326.739 393.837 325.954 394.498 325.293C395.159 324.631 395.944 324.108 396.809 323.752C397.673 323.395 398.6 323.214 399.534 323.217ZM439.192 413.107L176.078 459.533C174.249 459.856 172.373 459.816 170.559 459.414C168.745 459.013 167.027 458.258 165.505 457.192C163.983 456.126 162.686 454.771 161.687 453.204C160.689 451.637 160.009 449.889 159.687 448.059L149.746 391.64L440.857 340.296L450.772 396.742C451.418 400.437 450.573 404.236 448.422 407.309C446.271 410.382 442.99 412.476 439.298 413.134L439.192 413.107Z" fill="#199259"/>
<path d="M176.343 437.087C176.113 437.084 175.892 437 175.718 436.85C175.544 436.7 175.428 436.494 175.391 436.267L170.394 407.978C170.371 407.853 170.374 407.725 170.402 407.6C170.43 407.476 170.482 407.359 170.556 407.256C170.63 407.152 170.724 407.064 170.832 406.998C170.941 406.931 171.062 406.887 171.187 406.868C445.114 358.407 426.131 361.764 426.607 362.108C427.083 362.452 426.607 360.099 431.895 391.031C431.922 391.155 431.923 391.283 431.898 391.407C431.874 391.531 431.824 391.648 431.752 391.752C431.68 391.857 431.588 391.945 431.48 392.012C431.373 392.079 431.253 392.123 431.128 392.142C167.142 438.832 176.607 437.087 176.343 437.087ZM172.456 408.586L177.109 435.025L429.938 390.45L425.285 364.011L172.456 408.586Z" fill="#199259"/>
<path d="M187.844 410.649C187.832 410.559 187.801 410.473 187.753 410.395C187.706 410.318 187.643 410.251 187.569 410.199C187.494 410.146 187.41 410.11 187.321 410.092C187.232 410.074 187.14 410.075 187.051 410.094C176.872 411.997 177.428 411.707 177.216 412.024C177.005 412.341 176.925 411.204 180.098 429.685C180.136 429.865 180.243 430.024 180.396 430.127C180.549 430.231 180.736 430.271 180.917 430.24C191.096 428.336 190.515 428.627 190.752 428.31C190.99 427.992 191.07 429.129 187.844 410.649Z" fill="#199259"/>
<path d="M203.999 425.481L200.985 408.349C200.953 408.163 200.848 407.998 200.695 407.889C200.541 407.78 200.351 407.736 200.165 407.767C189.987 409.723 190.568 409.38 190.33 409.723C190.092 410.067 190.013 408.904 193.238 427.384C193.269 427.538 193.351 427.677 193.471 427.778C193.591 427.879 193.742 427.936 193.899 427.939C194.164 427.939 195.644 427.648 203.444 426.274C203.619 426.235 203.773 426.133 203.876 425.986C203.979 425.839 204.023 425.658 203.999 425.481Z" fill="#199259"/>
<path d="M214.07 406.022C214.038 405.843 213.937 405.685 213.788 405.581C213.64 405.477 213.456 405.436 213.277 405.467C203.099 407.344 203.654 407.079 203.416 407.423C203.178 407.767 203.151 406.577 206.324 425.057C206.362 425.238 206.469 425.397 206.622 425.5C206.775 425.604 206.962 425.644 207.144 425.612C217.322 423.709 216.741 424.026 216.979 423.682C217.217 423.339 217.296 424.502 214.07 406.022Z" fill="#199259"/>
<path d="M227.185 403.721C227.172 403.631 227.141 403.545 227.094 403.468C227.047 403.39 226.984 403.323 226.909 403.271C226.835 403.219 226.75 403.183 226.661 403.165C226.572 403.147 226.48 403.147 226.392 403.166C216.213 405.043 216.768 404.779 216.53 405.096C216.292 405.414 216.239 404.277 219.438 422.757C219.471 422.936 219.572 423.094 219.721 423.198C219.869 423.302 220.053 423.343 220.232 423.312C230.437 421.409 229.855 421.7 230.093 421.382C230.331 421.065 230.41 422.202 227.185 403.721Z" fill="#199259"/>
<path d="M240.298 401.395C240.266 401.217 240.164 401.058 240.016 400.954C239.867 400.85 239.684 400.809 239.505 400.84C229.3 402.664 229.881 402.453 229.643 402.797C229.406 403.14 229.353 401.95 232.552 420.431C232.584 420.609 232.685 420.768 232.834 420.872C232.982 420.976 233.166 421.017 233.345 420.986C243.524 419.082 242.968 419.373 243.206 419.056C243.444 418.739 243.524 419.876 240.298 401.395Z" fill="#199259"/>
<path d="M256.425 416.227L253.411 399.095C253.398 399.005 253.368 398.918 253.32 398.841C253.273 398.763 253.21 398.696 253.135 398.644C253.061 398.592 252.977 398.556 252.888 398.538C252.798 398.52 252.707 398.521 252.618 398.54L243.206 400.179C243.115 400.195 243.028 400.228 242.95 400.279C242.873 400.329 242.806 400.394 242.754 400.471C242.702 400.547 242.666 400.633 242.649 400.724C242.631 400.815 242.631 400.908 242.651 400.998C245.955 419.505 245.612 418.342 245.955 418.58C246.299 418.818 245.955 418.791 255.87 417.02C255.96 417.007 256.046 416.976 256.124 416.929C256.201 416.882 256.268 416.819 256.32 416.744C256.372 416.67 256.408 416.586 256.426 416.496C256.445 416.407 256.444 416.316 256.425 416.227Z" fill="#199259"/>
<path d="M266.524 396.795C266.511 396.704 266.48 396.617 266.433 396.538C266.386 396.46 266.323 396.391 266.25 396.337C266.176 396.283 266.092 396.244 266.003 396.223C265.913 396.202 265.821 396.198 265.731 396.213C255.552 398.17 256.107 397.826 255.869 398.17C255.631 398.514 255.578 397.324 258.777 415.804C258.81 415.984 258.91 416.145 259.058 416.253C259.205 416.362 259.389 416.409 259.57 416.386C269.749 414.456 269.194 414.773 269.432 414.429C269.67 414.086 269.749 415.249 266.524 396.795Z" fill="#199259"/>
<path d="M331.632 385.263C331.619 385.172 331.588 385.085 331.541 385.006C331.494 384.928 331.432 384.859 331.358 384.805C331.284 384.751 331.2 384.712 331.111 384.691C331.022 384.669 330.929 384.666 330.839 384.681C320.66 386.638 321.215 386.294 320.977 386.638C320.74 386.981 320.687 385.792 323.886 404.272C323.918 404.452 324.018 404.613 324.166 404.721C324.314 404.829 324.497 404.877 324.679 404.854C334.858 402.924 334.302 403.241 334.54 402.897C334.778 402.553 334.858 403.717 331.632 385.263Z" fill="#199259"/>
<path d="M279.636 394.442C279.598 394.267 279.495 394.112 279.348 394.009C279.201 393.907 279.021 393.863 278.843 393.887C268.638 395.711 269.219 395.5 268.981 395.817C268.743 396.134 268.691 394.997 271.89 413.478C271.902 413.568 271.933 413.654 271.98 413.731C272.028 413.809 272.091 413.876 272.165 413.928C272.24 413.98 272.324 414.016 272.413 414.034C272.502 414.052 272.594 414.052 272.683 414.033C282.861 412.129 282.306 412.42 282.544 412.103C282.782 411.786 282.782 412.949 279.636 394.442Z" fill="#199259"/>
<path d="M344.744 382.91C344.706 382.735 344.603 382.58 344.456 382.477C344.309 382.374 344.129 382.331 343.951 382.355C333.746 384.179 334.328 383.967 334.09 384.285C333.852 384.602 333.799 383.465 336.998 401.945C337.011 402.035 337.041 402.122 337.089 402.199C337.136 402.277 337.199 402.344 337.274 402.396C337.348 402.448 337.432 402.484 337.521 402.502C337.61 402.52 337.702 402.52 337.791 402.501C347.97 400.597 347.415 400.888 347.653 400.571C347.891 400.253 347.891 401.417 344.744 382.91Z" fill="#199259"/>
<path d="M292.751 392.168C292.735 392.077 292.701 391.99 292.651 391.912C292.601 391.835 292.536 391.768 292.459 391.716C292.383 391.664 292.297 391.628 292.206 391.61C292.115 391.593 292.022 391.593 291.932 391.613C281.753 393.49 282.335 393.225 282.097 393.543C281.859 393.86 281.806 392.723 285.005 411.203C285.037 411.382 285.139 411.54 285.287 411.644C285.436 411.748 285.619 411.789 285.798 411.759C295.977 409.829 295.421 410.146 295.659 409.802C295.897 409.458 295.897 410.648 292.751 392.168Z" fill="#199259"/>
<path d="M357.86 380.636C357.844 380.544 357.81 380.458 357.76 380.38C357.71 380.302 357.644 380.236 357.568 380.184C357.491 380.132 357.405 380.096 357.314 380.078C357.224 380.06 357.13 380.061 357.04 380.08C346.861 381.957 347.443 381.693 347.205 382.01C346.967 382.328 346.914 381.191 350.113 399.671C350.145 399.85 350.247 400.008 350.395 400.112C350.544 400.216 350.728 400.257 350.906 400.226C361.085 398.296 360.53 398.614 360.768 398.27C361.006 397.926 361.006 399.116 357.86 380.636Z" fill="#199259"/>
<path d="M308.879 406.973L305.865 389.841C305.832 389.663 305.731 389.504 305.582 389.4C305.434 389.296 305.25 389.255 305.072 389.286C294.893 391.269 295.448 390.899 295.21 391.216C294.972 391.533 294.893 390.397 298.118 408.877C298.143 409.036 298.223 409.181 298.343 409.287C298.464 409.394 298.618 409.454 298.779 409.458C299.07 409.458 300.524 409.141 308.323 407.766C308.413 407.754 308.5 407.723 308.577 407.676C308.655 407.628 308.722 407.565 308.774 407.491C308.826 407.416 308.862 407.332 308.88 407.243C308.898 407.154 308.898 407.062 308.879 406.973Z" fill="#199259"/>
<path d="M373.987 395.441L370.973 378.309C370.941 378.131 370.839 377.972 370.691 377.868C370.542 377.764 370.359 377.723 370.18 377.754C360.001 379.737 360.556 379.367 360.319 379.684C360.081 380.001 360.001 378.865 363.227 397.345C363.251 397.504 363.331 397.649 363.452 397.755C363.573 397.862 363.727 397.922 363.888 397.926C364.178 397.926 365.633 397.609 373.432 396.234C373.522 396.222 373.608 396.191 373.686 396.144C373.763 396.096 373.83 396.033 373.882 395.959C373.934 395.884 373.971 395.8 373.989 395.711C374.007 395.622 374.006 395.53 373.987 395.441Z" fill="#199259"/>
<path d="M318.978 387.542C318.962 387.45 318.928 387.364 318.878 387.286C318.828 387.208 318.762 387.142 318.686 387.09C318.609 387.038 318.523 387.002 318.433 386.984C318.342 386.966 318.249 386.967 318.158 386.986C307.979 388.811 308.561 388.573 308.323 388.916C308.085 389.26 308.032 388.097 311.231 406.577C311.264 406.756 311.365 406.914 311.514 407.018C311.662 407.122 311.846 407.163 312.025 407.132C322.203 405.202 321.648 405.52 321.886 405.176C322.124 404.832 322.124 406.022 318.978 387.542Z" fill="#199259"/>
<path d="M384.086 376.009C384.07 375.918 384.036 375.831 383.986 375.754C383.936 375.676 383.871 375.609 383.794 375.558C383.718 375.506 383.632 375.47 383.541 375.452C383.45 375.434 383.357 375.435 383.267 375.454C373.088 377.278 373.67 377.04 373.432 377.384C373.194 377.728 373.141 376.565 376.34 395.045C376.372 395.223 376.473 395.382 376.622 395.486C376.771 395.59 376.954 395.631 377.133 395.6C387.312 393.67 386.756 393.987 386.994 393.644C387.232 393.3 387.232 394.49 384.086 376.009Z" fill="#199259"/>
<path d="M354.352 306.799C358.659 306.799 362.151 303.307 362.151 299C362.151 294.692 358.659 291.2 354.352 291.2C350.045 291.2 346.553 294.692 346.553 299C346.553 303.307 350.045 306.799 354.352 306.799Z" fill="#E3E3E3"/>
<path d="M354.354 307.513C352.669 307.518 351.021 307.023 349.617 306.091C348.214 305.159 347.118 303.831 346.47 302.276C345.822 300.721 345.649 299.008 345.975 297.355C346.3 295.702 347.109 294.183 348.299 292.989C349.488 291.796 351.005 290.983 352.657 290.652C354.309 290.321 356.022 290.489 357.579 291.132C359.136 291.776 360.467 292.867 361.404 294.267C362.341 295.668 362.841 297.315 362.841 299C362.841 301.253 361.947 303.414 360.357 305.01C358.766 306.606 356.607 307.506 354.354 307.513ZM354.354 291.888C352.947 291.888 351.572 292.305 350.403 293.086C349.233 293.868 348.322 294.979 347.783 296.278C347.245 297.578 347.104 299.008 347.379 300.387C347.653 301.767 348.331 303.034 349.325 304.029C350.32 305.023 351.587 305.7 352.967 305.975C354.346 306.249 355.776 306.108 357.076 305.57C358.375 305.032 359.486 304.12 360.267 302.951C361.049 301.781 361.466 300.406 361.466 299C361.459 297.116 360.707 295.311 359.375 293.978C358.043 292.646 356.238 291.895 354.354 291.888Z" fill="#199259"/>
<path d="M187.262 374.587C88.6739 376.226 0 293.977 0 187.219C0.0490107 141.849 16.5541 98.0366 46.4529 63.9116C76.3517 29.7866 117.614 7.66575 162.584 1.65339C207.554 -4.35897 253.178 6.14541 290.992 31.2175C328.805 56.2896 356.24 94.227 368.206 137.991C368.24 138.112 368.251 138.239 368.236 138.365C368.222 138.491 368.183 138.612 368.122 138.723C368.06 138.833 367.978 138.93 367.879 139.009C367.78 139.087 367.666 139.146 367.545 139.18C367.423 139.215 367.296 139.226 367.17 139.211C367.045 139.197 366.923 139.158 366.813 139.096C366.702 139.035 366.605 138.953 366.527 138.854C366.448 138.755 366.39 138.641 366.355 138.52C357.266 105.152 339.029 74.9903 313.704 51.4393C288.379 27.8882 256.975 11.886 223.036 5.23915C189.098 -1.40766 153.977 1.5657 121.639 13.8235C89.3013 26.0814 61.034 47.1355 40.029 74.6089C19.024 102.082 6.11766 134.881 2.76721 169.301C-0.583234 203.722 5.75562 238.394 21.0681 269.402C36.3806 300.41 60.0569 326.521 89.4239 344.785C118.791 363.049 152.679 372.74 187.262 372.763C222.469 372.689 256.934 362.638 286.662 343.776C316.389 324.914 340.162 298.012 355.224 266.19C355.334 265.955 355.531 265.774 355.774 265.685C356.017 265.595 356.285 265.606 356.52 265.714C356.75 265.828 356.926 266.028 357.01 266.27C357.094 266.512 357.079 266.778 356.969 267.009C341.751 299.121 317.75 326.267 287.745 345.305C257.739 364.343 222.956 374.495 187.421 374.587H187.262Z" fill="#199259"/>
<path d="M372.068 213.869C371.928 213.87 371.789 213.841 371.661 213.784C371.532 213.727 371.418 213.642 371.325 213.537C371.232 213.432 371.163 213.308 371.123 213.173C371.082 213.039 371.071 212.897 371.09 212.758C372.125 205.292 372.699 197.769 372.809 190.233C372.815 189.978 372.921 189.736 373.104 189.558C373.287 189.38 373.532 189.281 373.787 189.281C374.042 189.288 374.284 189.394 374.461 189.577C374.639 189.759 374.739 190.004 374.739 190.259C374.629 197.875 374.055 205.477 373.02 213.023C372.988 213.254 372.875 213.466 372.701 213.622C372.526 213.777 372.302 213.864 372.068 213.869Z" fill="#199259"/>
<path d="M339.628 36.6526C332.182 36.6526 324.903 38.8606 318.711 42.9974C312.52 47.1343 307.695 53.0141 304.845 59.8934C301.996 66.7727 301.25 74.3424 302.703 81.6455C304.156 88.9485 307.741 95.6567 313.006 100.922C318.272 106.187 324.98 109.773 332.283 111.225C339.586 112.678 347.156 111.932 354.035 109.083C360.914 106.233 366.794 101.408 370.931 95.2168C375.068 89.0256 377.276 81.7468 377.276 74.3007C377.262 64.3201 373.291 54.7523 366.233 47.6949C359.176 40.6376 349.608 36.6666 339.628 36.6526ZM355.491 106.344C345.201 85.0594 330.963 65.9228 313.533 49.951C317.094 46.1015 321.459 43.0838 326.319 41.1128C331.178 39.1417 336.412 38.2657 341.649 38.547C346.885 38.8283 351.995 40.2599 356.615 42.7402C361.236 45.2205 365.253 48.6884 368.381 52.8973C371.509 57.1061 373.671 61.9526 374.713 67.0919C375.756 72.2312 375.653 77.537 374.412 82.6321C373.172 87.7272 370.823 92.4862 367.535 96.5708C364.246 100.655 360.098 103.965 355.385 106.265L355.491 106.344Z" fill="#199259"/>
<path d="M150.988 149.254C150.966 149.13 150.919 149.012 150.851 148.907C150.783 148.802 150.695 148.711 150.592 148.639C150.489 148.568 150.373 148.518 150.25 148.492C150.127 148.466 150.001 148.464 149.878 148.487L146.361 149.095C145.557 144.699 143.87 140.511 141.403 136.785C138.936 133.059 135.739 129.872 132.005 127.416C134.642 123.866 136.538 119.823 137.583 115.527C138.627 111.231 138.799 106.769 138.086 102.405L141.629 101.797C141.882 101.746 142.105 101.599 142.253 101.387C142.401 101.176 142.461 100.915 142.422 100.66C142.371 100.409 142.223 100.188 142.01 100.044C141.798 99.9008 141.537 99.8466 141.285 99.8933L111.066 105.181C110.814 105.202 110.58 105.322 110.416 105.516C110.253 105.709 110.173 105.96 110.194 106.212C110.215 106.465 110.335 106.698 110.529 106.862C110.722 107.025 110.972 107.106 111.225 107.085L114.979 106.424C115.799 110.765 117.483 114.898 119.931 118.577C122.379 122.256 125.541 125.405 129.229 127.839C126.561 131.422 124.647 135.51 123.602 139.854C122.556 144.198 122.402 148.708 123.148 153.114L119.632 153.854C119.379 153.905 119.156 154.052 119.008 154.264C118.86 154.475 118.8 154.736 118.839 154.991C118.89 155.242 119.038 155.463 119.251 155.607C119.463 155.75 119.724 155.804 119.976 155.757L150.221 150.47C150.356 150.449 150.485 150.4 150.599 150.325C150.713 150.25 150.809 150.152 150.882 150.037C150.955 149.921 151.002 149.792 151.02 149.657C151.038 149.521 151.027 149.384 150.988 149.254ZM116.883 106.265L136.209 102.854C136.869 106.959 136.704 111.154 135.723 115.194C134.742 119.235 132.966 123.039 130.498 126.384C126.992 124.12 123.978 121.171 121.638 117.713C119.299 114.256 117.681 110.362 116.883 106.265ZM130.842 129.055C134.378 131.364 137.407 134.369 139.743 137.887C142.08 141.406 143.675 145.363 144.431 149.518L125.052 152.928C124.332 148.752 124.475 144.473 125.47 140.353C126.466 136.234 128.294 132.362 130.842 128.975V129.055Z" fill="#199259"/>
<path d="M436.472 216.618C436.219 216.639 435.969 216.559 435.776 216.396C435.582 216.232 435.462 215.998 435.441 215.746C435.42 215.493 435.5 215.243 435.663 215.05C435.827 214.856 436.061 214.736 436.313 214.715L449.717 212.335C449.843 212.313 449.971 212.315 450.095 212.343C450.219 212.371 450.337 212.423 450.44 212.497C450.544 212.571 450.631 212.665 450.698 212.774C450.765 212.882 450.809 213.003 450.828 213.128C450.855 213.252 450.856 213.38 450.831 213.504C450.806 213.628 450.757 213.746 450.685 213.85C450.613 213.954 450.521 214.042 450.413 214.109C450.306 214.176 450.186 214.22 450.061 214.239C437.186 216.513 436.736 216.618 436.472 216.618Z" fill="#199259"/>
<path d="M473.669 210.061C473.417 210.086 473.165 210.009 472.969 209.848C472.773 209.687 472.649 209.455 472.625 209.202C472.6 208.95 472.677 208.698 472.838 208.502C472.999 208.306 473.231 208.182 473.484 208.158L486.888 205.778C487.013 205.756 487.142 205.758 487.266 205.786C487.39 205.814 487.507 205.867 487.611 205.94C487.714 206.014 487.802 206.108 487.869 206.217C487.935 206.325 487.979 206.446 487.998 206.572C488.021 206.695 488.02 206.821 487.993 206.944C487.967 207.067 487.917 207.183 487.846 207.286C487.775 207.389 487.684 207.477 487.578 207.545C487.473 207.613 487.355 207.66 487.232 207.682C474.198 210.009 473.933 210.061 473.669 210.061Z" fill="#199259"/>
<path d="M459.685 200.253C459.457 200.256 459.237 200.178 459.062 200.033C458.887 199.887 458.771 199.684 458.733 199.46L456.353 186.082C456.314 185.827 456.375 185.567 456.523 185.355C456.67 185.144 456.894 184.997 457.147 184.946C457.398 184.907 457.656 184.968 457.863 185.117C458.07 185.265 458.212 185.488 458.257 185.739L460.61 199.143C460.633 199.278 460.626 199.417 460.59 199.55C460.555 199.682 460.491 199.805 460.403 199.911C460.315 200.016 460.205 200.102 460.081 200.161C459.957 200.22 459.822 200.251 459.685 200.253Z" fill="#199259"/>
<path d="M466.266 237.451C466.039 237.455 465.818 237.376 465.644 237.231C465.469 237.085 465.352 236.882 465.315 236.658L462.935 223.254C462.912 223.129 462.915 223 462.943 222.876C462.971 222.752 463.023 222.635 463.097 222.531C463.171 222.428 463.265 222.34 463.373 222.274C463.482 222.207 463.603 222.163 463.728 222.144C463.852 222.121 463.978 222.122 464.101 222.149C464.223 222.175 464.34 222.225 464.443 222.296C464.546 222.367 464.634 222.458 464.702 222.564C464.77 222.669 464.816 222.787 464.839 222.91L467.192 236.315C467.219 236.452 467.216 236.594 467.182 236.729C467.148 236.865 467.085 236.992 466.996 237.101C466.908 237.209 466.797 237.297 466.67 237.357C466.544 237.418 466.406 237.45 466.266 237.451Z" fill="#199259"/>
<path d="M451.882 205.223C451.432 205.223 452.305 205.752 440.17 197.292C439.963 197.147 439.822 196.927 439.778 196.68C439.733 196.432 439.789 196.177 439.932 195.97C440.003 195.864 440.095 195.773 440.202 195.704C440.31 195.634 440.43 195.587 440.555 195.565C440.681 195.542 440.81 195.546 440.935 195.574C441.059 195.603 441.177 195.657 441.28 195.732L452.437 203.663C452.547 203.79 452.621 203.945 452.652 204.11C452.684 204.276 452.67 204.446 452.614 204.605C452.557 204.763 452.46 204.904 452.331 205.013C452.203 205.121 452.048 205.194 451.882 205.223Z" fill="#199259"/>
<path d="M482.816 226.877C482.367 226.877 483.239 227.406 471.104 218.945C470.898 218.801 470.757 218.581 470.712 218.334C470.668 218.086 470.723 217.83 470.866 217.623C470.938 217.518 471.03 217.427 471.137 217.357C471.244 217.288 471.364 217.241 471.49 217.218C471.616 217.196 471.745 217.199 471.869 217.228C471.994 217.257 472.111 217.31 472.215 217.385L483.372 225.238C483.504 225.363 483.598 225.523 483.642 225.7C483.686 225.877 483.679 226.063 483.62 226.235C483.562 226.408 483.455 226.56 483.312 226.674C483.17 226.788 482.998 226.858 482.816 226.877Z" fill="#199259"/>
<path d="M468.699 202.262C468.522 202.266 468.347 202.22 468.195 202.13C468.043 202.041 467.918 201.91 467.836 201.754C467.754 201.597 467.717 201.421 467.729 201.244C467.741 201.068 467.802 200.899 467.905 200.755L475.705 189.598C475.858 189.395 476.082 189.258 476.332 189.214C476.582 189.17 476.84 189.222 477.053 189.36C477.159 189.431 477.249 189.524 477.319 189.631C477.389 189.738 477.436 189.858 477.458 189.984C477.48 190.11 477.477 190.239 477.448 190.363C477.42 190.488 477.366 190.605 477.291 190.708L469.492 201.865C469.402 201.991 469.282 202.093 469.144 202.162C469.006 202.231 468.853 202.265 468.699 202.262Z" fill="#199259"/>
<path d="M447.045 233.168C446.868 233.172 446.694 233.127 446.542 233.037C446.389 232.947 446.265 232.817 446.183 232.66C446.1 232.504 446.063 232.327 446.076 232.151C446.088 231.975 446.149 231.805 446.252 231.661L454.051 220.505C454.2 220.296 454.425 220.155 454.677 220.11C454.929 220.066 455.189 220.122 455.4 220.267C455.603 220.42 455.74 220.644 455.784 220.894C455.828 221.144 455.776 221.402 455.638 221.615L447.759 232.798C447.673 232.907 447.565 232.996 447.442 233.06C447.319 233.124 447.184 233.161 447.045 233.168Z" fill="#199259"/>
<path d="M117.068 408.983L98.3501 395.896L111.569 377.178C111.644 377.075 111.698 376.957 111.727 376.833C111.755 376.708 111.759 376.579 111.736 376.453C111.714 376.328 111.667 376.208 111.597 376.1C111.528 375.993 111.437 375.901 111.331 375.83C111.118 375.692 110.861 375.639 110.61 375.683C110.36 375.728 110.136 375.865 109.983 376.068L96.7638 394.786L78.0456 381.567C77.8385 381.424 77.5832 381.368 77.3355 381.413C77.0877 381.458 76.8677 381.598 76.7236 381.805C76.6486 381.908 76.5951 382.026 76.5663 382.15C76.5376 382.275 76.5343 382.404 76.5565 382.53C76.5787 382.655 76.626 382.775 76.6956 382.883C76.7652 382.99 76.8557 383.082 76.9616 383.153L95.6799 396.372L82.4607 415.064C82.3548 415.274 82.3281 415.515 82.3854 415.743C82.4428 415.971 82.5805 416.171 82.7731 416.306C82.9658 416.441 83.2007 416.502 83.4346 416.478C83.6686 416.454 83.886 416.346 84.047 416.175L97.2662 397.456L115.984 410.675C116.209 410.819 116.481 410.868 116.741 410.811C117.002 410.754 117.229 410.596 117.372 410.371C117.516 410.147 117.565 409.875 117.508 409.614C117.451 409.354 117.293 409.127 117.068 408.983Z" fill="#199259"/>
<path d="M380.659 450.253L383.303 445.441C383.367 445.332 383.409 445.212 383.425 445.087C383.441 444.962 383.432 444.835 383.397 444.713C383.363 444.592 383.303 444.479 383.223 444.381C383.144 444.284 383.044 444.203 382.932 444.145C382.715 444.02 382.457 443.986 382.214 444.051C381.971 444.115 381.764 444.273 381.637 444.489C378.993 449.301 377.883 450.993 377.565 451.707C377.501 451.796 377.455 451.898 377.43 452.006C377.406 452.113 377.404 452.225 377.423 452.334C377.443 452.442 377.485 452.546 377.545 452.638C377.606 452.73 377.685 452.809 377.777 452.87C378.306 453.267 379.892 454.113 385.1 457.074C385.325 457.198 385.59 457.229 385.837 457.16C386.084 457.09 386.295 456.927 386.422 456.704C386.54 456.477 386.567 456.215 386.498 455.97C386.429 455.724 386.27 455.514 386.052 455.382L380.527 452.262C382.878 451.456 385.425 451.417 387.8 452.151C390.175 452.885 392.256 454.354 393.742 456.347C395.229 458.339 396.044 460.752 396.071 463.238C396.099 465.724 395.336 468.154 393.893 470.178C392.451 472.203 390.403 473.717 388.044 474.503C385.686 475.289 383.139 475.305 380.77 474.551C378.402 473.796 376.334 472.309 374.864 470.304C373.395 468.298 372.601 465.878 372.595 463.393C372.588 463.135 372.483 462.89 372.301 462.708C372.119 462.526 371.874 462.421 371.617 462.414C371.362 462.421 371.12 462.527 370.942 462.71C370.764 462.893 370.665 463.138 370.665 463.393C370.678 466.253 371.588 469.038 373.267 471.354C374.946 473.67 377.309 475.401 380.024 476.303C382.738 477.205 385.667 477.232 388.399 476.381C391.13 475.531 393.525 473.844 395.247 471.56C396.97 469.276 397.932 466.509 397.998 463.65C398.065 460.79 397.233 457.981 395.619 455.619C394.005 453.258 391.69 451.462 389.002 450.485C386.313 449.508 383.386 449.399 380.632 450.173L380.659 450.253Z" fill="#199259"/>
<path d="M503.704 284.908C484.721 275.972 458.573 279.065 436.524 271.107C438.586 267.035 439.749 260.003 436.524 258.39C420.106 245.356 366.383 207.206 351.604 197.979C356.68 196.445 414.765 178.811 429.333 174.845C433.616 174.343 433.695 166.359 433.219 162.049C439.835 161.287 446.502 161.066 453.154 161.388C453.373 161.42 453.597 161.366 453.779 161.238C453.961 161.111 454.087 160.918 454.132 160.701C462.486 131.063 464.866 96.8524 465.5 83.5275C465.515 83.3463 465.477 83.1647 465.391 83.0043C465.306 82.844 465.176 82.7114 465.017 82.6224C464.859 82.5335 464.678 82.4917 464.497 82.5022C464.315 82.5126 464.14 82.5748 463.993 82.6815C442.658 97.0903 440.199 119.272 427.138 130.27C425.314 124.692 422.67 121.651 420.211 122.339C316.124 150.76 312.555 152.664 304.28 157.555C295.582 162.684 285.244 176.564 254.92 214.873C253.756 215.269 251.985 215.957 249.632 216.856C250.557 212.017 252.276 200.728 252.963 193.96C252.974 193.247 252.811 192.543 252.489 191.907C252.166 191.271 251.694 190.724 251.112 190.312C248.945 188.862 246.46 187.955 243.868 187.668C242.837 174.211 240.167 141.348 240.167 134.527C240.167 125.538 247.279 113.614 247.57 113.138C249.526 109.939 249.473 106.502 249.182 98.3065C249.182 96.4558 248.363 95.2661 247.2 95.1339C245.322 94.8959 243.445 97.4869 241.912 102.484C240.643 106.608 237.365 109.807 235.514 109.49C233.663 109.173 233.187 106.502 233.293 102.14C233.478 94.2085 234.8 82.8665 235.064 79.8261C235.329 76.7857 234.562 74.1948 232.923 73.9039C231.284 73.6131 229.486 75.6753 228.455 79.4824C227.767 81.8619 226.551 86.3299 225.52 90.6922C225.309 85.7219 225.282 81.3331 225.229 76.9443C225.229 73.5603 224.145 71.4981 222.586 71.3659C221.026 71.2337 219.334 73.4809 218.673 77.3674C218.144 80.6457 217.562 84.7965 217.113 88.7623C216.558 84.7172 216.32 82.0469 216.055 79.5617C215.5 74.8029 213.676 74.2741 212.83 74.2741C211.006 74.2741 209.789 76.7064 209.499 80.6986C209.314 84.2149 209.208 87.784 209.181 91.2739C208.758 89.2117 208.494 87.784 208.071 85.5103C207.463 82.2584 206.167 80.4871 204.66 80.6457C203.153 80.8043 202.017 83.2895 202.017 87.1495C201.939 94.1579 202.434 101.161 203.497 108.089C204.74 113.746 209.895 128.499 211.032 132.438C206.194 137.726 206.802 148.671 212.565 152.399C212.565 152.399 212.565 179.234 212.565 184.971C207.595 186.187 207.066 188.514 207.278 189.889C207.093 193.431 206.934 202.209 206.828 207.84C188.586 212.07 152.815 221.535 136.027 218.415C138.784 214.207 140.63 209.468 141.446 204.503C142.262 199.538 142.03 194.458 140.766 189.588C139.501 184.718 137.231 180.167 134.102 176.227C130.973 172.287 127.054 169.045 122.597 166.71C118.141 164.375 113.244 162.999 108.224 162.669C103.203 162.339 98.1693 163.064 93.4456 164.797C88.7218 166.529 84.4128 169.231 80.7957 172.728C77.1785 176.225 74.3332 180.441 72.4427 185.103C69.7561 182.31 66.2957 180.384 62.5061 179.572C58.7164 178.761 54.7707 179.101 51.1759 180.549C47.5811 181.997 44.5014 184.487 42.3326 187.699C40.1637 190.911 39.0049 194.698 39.0049 198.574C39.0049 202.449 40.1637 206.236 42.3326 209.448C44.5014 212.66 47.5811 215.15 51.1759 216.598C54.7707 218.046 58.7164 218.386 62.5061 217.575C66.2957 216.763 69.7561 214.837 72.4427 212.044C75.7888 220.26 82.0418 226.957 90.0093 230.857C97.9767 234.758 107.101 235.59 115.643 233.194C118.287 246.942 115.986 256.328 113.633 269.732C108.346 299.264 101.948 336.013 110.99 348.148C120.745 361.367 133.198 359.093 167.594 359.093C172.723 359.384 174.494 351.585 174.627 346.192C184.091 344.42 195.777 342.094 203.947 340.428C214.522 338.26 217.509 334.374 220.92 329.853C222.744 327.42 222.321 328.055 224.172 325.702C227.212 321.921 229.195 319.674 231.416 320.837C238.211 324.433 249.923 329.985 251.853 326.918C252.302 326.204 252.196 325.014 250.584 323.825C247.305 321.392 244.794 319.383 242.652 317.506C246.882 318.273 261.159 320.546 262.269 316.396C262.481 315.55 262.058 314.36 260.181 313.752L248.944 310.315C252.963 310.447 265.442 310.553 265.865 306.561C265.887 306.117 265.758 305.679 265.499 305.319C265.239 304.959 264.865 304.697 264.437 304.578C279.586 300.057 292.7 283.956 303.804 265.079C311.973 259.527 319.667 254.266 327.81 248.899C340.5 257.174 399.431 295.509 410.059 301.775C413.893 304.049 418.89 299.131 421.481 295.536C424.832 298.988 428.362 302.262 432.056 305.344C434.7 307.274 479.645 297.228 503.783 286.15C503.921 285.968 503.989 285.742 503.975 285.514C503.96 285.286 503.864 285.071 503.704 284.908ZM431.078 129.186C442.049 117.633 445.539 98.4915 463.517 85.3781C462.751 99.7077 460.265 131.539 452.519 159.405C442.466 158.98 432.398 159.779 422.538 161.785C420.278 153.743 418.886 145.483 418.387 137.144C423.24 135.645 427.615 132.902 431.078 129.186ZM242.705 196.287C233.232 196.826 223.733 195.89 214.548 193.511C214.548 188.62 214.548 153.43 214.548 153.43C216.521 154.032 218.639 153.949 220.558 153.195C222.478 152.442 224.087 151.062 225.124 149.279C229.806 149.428 234.476 148.711 238.898 147.164C239.982 161.785 242.203 188.752 242.705 196.287ZM205.454 107.771C204.421 100.974 203.943 94.1037 204.026 87.2288C203.839 85.6452 204.134 84.0421 204.872 82.6286C205.057 82.6286 205.771 83.4217 206.247 85.9598C209.181 101.532 209.287 97.9363 209.499 102.378C209.537 102.606 209.654 102.814 209.831 102.964C210.008 103.114 210.232 103.196 210.464 103.196C210.695 103.196 210.919 103.114 211.096 102.964C211.273 102.814 211.391 102.606 211.429 102.378C211.058 95.2356 211.058 88.0789 211.429 80.9365C211.667 77.6053 212.565 76.3891 212.856 76.3363C213.147 76.2834 213.808 77.0765 214.125 79.879C214.733 85.1666 215.13 89.6876 216.346 96.3236C216.346 97.7248 216.135 98.9674 216.108 99.8663C216.146 100.095 216.264 100.302 216.441 100.452C216.617 100.602 216.842 100.684 217.073 100.684C217.305 100.684 217.529 100.602 217.706 100.452C217.882 100.302 218 100.095 218.038 99.8663C218.223 94.8959 219.545 83.8447 220.682 77.7111C221.237 74.4327 222.268 73.3223 222.533 73.3223C222.797 73.3223 223.458 74.1419 223.484 76.9972C223.775 99.3376 224.357 96.588 224.04 98.9145C224.001 99.167 224.064 99.4244 224.216 99.6301C224.367 99.8359 224.594 99.9732 224.846 100.012C225.098 100.05 225.356 99.987 225.562 99.8358C225.767 99.6846 225.905 99.4578 225.943 99.2054C227.089 92.7253 228.607 86.3166 230.491 80.0112C231.442 76.5478 232.579 75.8339 232.764 75.8339C232.949 75.8339 233.584 76.7857 233.319 79.6939C233.055 82.6021 231.733 93.8648 231.548 102.114C231.363 109.278 233.557 111.129 235.408 111.42C238.766 111.949 242.599 107.454 243.921 103.065C245.428 98.1743 246.829 97.0903 247.067 97.0374C247.327 97.4466 247.448 97.9289 247.411 98.4122C247.702 106.185 247.755 109.437 246.089 112.16C242.494 118.135 238.316 127.706 238.396 134.976C234.481 136.379 230.365 137.138 226.208 137.224C223.749 129.715 217.007 128.393 212.751 131.196C211.296 126.569 206.564 112.795 205.454 107.771ZM217.113 131.724C227.08 131.539 228.27 151.87 217.113 151.87C207.172 151.844 207.384 131.936 217.113 131.724ZM109.694 213.683C108.822 212.731 108.055 212.282 107.447 212.335C100.89 212.758 99.251 207.047 105.702 208.21C107.288 208.528 108.002 207.946 108.346 207.417C109.377 205.699 107.103 202.129 104.724 199.036C109.366 196.375 113.596 193.053 117.282 189.175C128.677 198.587 134.652 207.047 132.933 211.356C131.823 214.185 127.355 215.402 120.005 214.873C119.783 214.848 119.559 214.903 119.373 215.027C119.188 215.151 119.051 215.336 118.988 215.55C118.925 215.765 118.939 215.994 119.029 216.199C119.118 216.404 119.276 216.571 119.476 216.671C126.297 220.266 138.829 221.165 144.328 221.165C146.708 221.165 149.219 221.165 151.863 220.821C148.585 235.389 136.397 247.973 118.154 255.667C119.136 247.846 118.841 239.917 117.282 232.19C117.282 232.19 117.282 232.19 117.282 232.005C116.218 225.364 113.62 219.064 109.694 213.604V213.683ZM112.497 347.408C102.106 333.395 114.479 278.404 117.784 257.941C137.481 250.009 150.568 236.42 153.846 220.689C168.44 219.129 188.982 214.132 206.855 210.114C206.855 211.436 206.855 212.44 206.855 212.758C206.851 212.885 206.873 213.011 206.919 213.13C206.966 213.249 207.035 213.357 207.124 213.448C207.213 213.539 207.319 213.612 207.436 213.661C207.553 213.71 207.679 213.736 207.807 213.736C208.061 213.736 208.306 213.637 208.489 213.459C208.672 213.281 208.778 213.039 208.785 212.784C208.785 210.775 208.97 199.327 209.155 192.929C212.169 195.388 218.805 197.133 228.481 197.979C234.139 198.455 245.904 199.168 250.927 196.498C250.028 204.007 248.284 214.503 247.702 217.649C236.571 222.117 217.853 229.995 210.054 233.512C178.698 218.812 172.036 221.165 157.865 223.862C157.741 223.884 157.623 223.93 157.518 223.998C157.413 224.066 157.322 224.154 157.251 224.258C157.179 224.361 157.129 224.477 157.103 224.6C157.077 224.722 157.075 224.849 157.098 224.972C157.12 225.098 157.167 225.219 157.237 225.326C157.307 225.433 157.397 225.526 157.503 225.597C157.609 225.669 157.729 225.718 157.855 225.743C157.98 225.767 158.11 225.766 158.235 225.739C171.93 223.095 178.381 220.768 209.261 235.283C212.46 245.118 210.16 266.692 199.267 277.902C193.398 279.541 187.053 281.074 180.76 282.475C174.281 280.992 167.953 278.913 161.857 276.262C162.148 275.654 162.465 275.046 162.756 274.465C162.815 274.353 162.851 274.232 162.863 274.107C162.875 273.981 162.863 273.855 162.826 273.735C162.789 273.614 162.729 273.503 162.649 273.405C162.569 273.308 162.47 273.228 162.359 273.169C162.248 273.11 162.126 273.073 162.001 273.061C161.876 273.049 161.75 273.062 161.629 273.099C161.509 273.136 161.397 273.196 161.3 273.276C161.203 273.356 161.123 273.455 161.064 273.566C155.024 285.713 150.155 298.408 146.523 311.478C142.266 312.245 138.327 312.932 135.63 313.355C135.457 313.44 135.313 313.575 135.219 313.743C135.124 313.911 135.082 314.104 135.099 314.296C135.117 314.488 135.192 314.67 135.315 314.818C135.438 314.967 135.603 315.074 135.789 315.127C136.344 315.127 156.252 311.557 161.83 310.659C159.689 313.699 157.759 320.335 158.473 334.638C158.79 340.983 159.9 352.642 164.104 357.375C132.881 357.613 121.406 359.305 112.497 347.328V347.408ZM208.309 307.935C206.279 309.279 204.129 310.43 201.884 311.372C199.531 311.742 184.303 313.435 171.718 314.492C171.031 310.923 168.757 307.83 165.188 308.305C161.619 308.781 154.93 309.971 148.664 310.949C150.733 303.545 153.241 296.271 156.173 289.164C169.894 286.679 185.863 283.506 199.373 279.699C203.646 286.476 208.923 292.564 215.024 297.757C213.068 301.303 210.822 304.681 208.309 307.856V307.935ZM222.136 287.684C222.136 287.684 223.855 289.323 221.528 299.872C218.699 301.511 215.606 303.414 212.698 305.159C219.572 295.192 220.92 288.688 222.136 287.604V287.684ZM241.277 308.332C239.718 307.777 238.237 307.248 236.889 306.719C236.771 306.673 236.645 306.65 236.518 306.653C236.391 306.656 236.266 306.684 236.151 306.735C236.035 306.787 235.93 306.861 235.844 306.954C235.757 307.047 235.69 307.155 235.646 307.274C235.599 307.391 235.575 307.515 235.576 307.641C235.577 307.766 235.603 307.89 235.652 308.006C235.701 308.121 235.773 308.226 235.862 308.314C235.952 308.401 236.058 308.47 236.175 308.517C242.494 311.002 251.668 313.593 259.493 316.025C259.996 316.184 260.234 316.369 260.286 316.316C259.811 316.977 254.999 318.616 239.585 315.391L236.598 312.747C236.405 312.582 236.155 312.501 235.902 312.521C235.649 312.541 235.414 312.66 235.249 312.853C235.085 313.046 235.003 313.296 235.023 313.549C235.043 313.802 235.162 314.036 235.355 314.201C240.643 318.696 243.604 321.445 249.42 325.728C249.623 325.885 249.809 326.062 249.976 326.257C248.971 326.389 244.899 326.257 232.288 319.489C227.979 317.242 224.78 322.344 221.396 326.442C216.531 332.338 215.262 336.489 203.524 338.895C191.045 341.538 169.339 345.663 161.804 346.826C159.935 337.039 159.783 327.001 161.355 317.162C172.406 316.607 197.522 314.043 202.122 313.302C205.427 312.774 225.732 298.365 230.993 297.439C232.394 297.201 251.562 297.651 259.017 297.757C259.526 297.743 260.032 297.842 260.498 298.047C260.498 298.047 259.203 300.823 242.335 301.67C240.273 301.273 238.369 300.903 236.756 300.533C236.508 300.477 236.247 300.52 236.03 300.653C235.812 300.787 235.656 300.999 235.593 301.247C235.544 301.495 235.59 301.752 235.722 301.968C235.855 302.184 236.063 302.341 236.307 302.41C243.472 304.049 255.58 305.82 262.983 306.719C263.512 306.719 263.75 306.904 263.829 306.878C263.38 307.539 258.489 309.839 241.277 308.253V308.332ZM258.885 304.208C256.083 303.811 253.069 303.388 250.081 302.912C256.347 302.198 262.507 300.771 262.428 297.995C262.428 296.673 261 295.774 259.044 295.774C249.42 295.642 232.235 295.192 230.623 295.509C228.207 296.238 225.896 297.278 223.749 298.603C225.282 290.988 224.912 286.494 222.691 285.833C221.396 285.463 220.047 286.52 219.413 288.477C218.378 291.115 217.195 293.692 215.87 296.197C210.078 291.176 205.054 285.333 200.959 278.853C212.037 267.062 214.363 245.673 211.164 235.098C221.026 230.736 243.313 221.403 252.619 217.807C246.327 225.739 239.162 234.781 230.966 245.039C230.888 245.138 230.83 245.251 230.796 245.372C230.762 245.494 230.752 245.621 230.767 245.746C230.781 245.871 230.82 245.992 230.882 246.102C230.944 246.212 231.026 246.309 231.125 246.387C231.224 246.465 231.337 246.523 231.459 246.557C231.58 246.592 231.707 246.602 231.832 246.587C231.957 246.572 232.078 246.533 232.188 246.472C232.298 246.41 232.395 246.327 232.473 246.228C285.905 179.181 296.11 164.614 305.284 159.141C313.216 154.514 317.472 153.007 417.647 125.009C415.902 129.133 415.928 137.594 417.647 149.147C418.678 155.545 421.401 169.293 426.213 173.629C411.54 177.701 338.597 199.829 332.542 201.627C332.41 201.669 332.288 201.737 332.183 201.828C332.078 201.919 331.994 202.031 331.934 202.156C317.578 233.168 292.753 300.268 258.885 304.128V304.208ZM408.261 298.92C392.583 289.164 338.94 254.239 328.206 247.233C328.05 247.129 327.866 247.073 327.678 247.073C327.489 247.073 327.305 247.129 327.149 247.233L321.306 251.12C323.95 241.39 327.175 222.037 328.762 214.106C330.48 210.246 332.119 206.598 333.626 203.346L349.145 198.798C360.593 205.593 414.765 243.981 433.431 258.469C426.953 260.532 419.974 270.367 416.457 276.157C409.848 286.97 407.653 294.716 408.261 298.973V298.92ZM432.796 304.023C425.79 298.735 424.865 294.187 412.439 287.975C415.577 280.642 419.734 273.789 424.785 267.617C448.183 281.867 479.275 276.685 500.928 285.727C483.61 293.315 450.14 302.886 432.796 304.075V304.023Z" fill="#141415"/>
</svg>
