<svg width="581" height="433" viewBox="0 0 581 433" fill="none" xmlns="http://www.w3.org/2000/svg">
<path d="M447 254L481 231" stroke="#199259"/>
<path d="M423 253.5L390 231.5" stroke="#199259"/>
<path d="M335 254L369 231" stroke="#199259"/>
<path d="M215 254L249 231" stroke="#199259"/>
<path d="M302 253.5L269 231.5" stroke="#199259"/>
<path d="M221 165L248 147" stroke="#199259"/>
<path d="M99.6938 258.318V305.506L71.5605 290.251C73.4452 276.134 80.5031 263.215 91.3713 253.988L99.6938 258.318Z" fill="#E6E7E8"/>
<path d="M72.4066 283.806C72.2631 284.355 70.9381 289.785 70.99 290.334C71.0877 290.803 69.5551 289.831 99.4163 306.009C99.5503 306.082 99.7078 306.098 99.8541 306.055C100 306.012 100.123 305.913 100.196 305.779C100.269 305.645 100.286 305.488 100.243 305.342C100.199 305.196 100.1 305.073 99.9658 305L72.199 289.95C74.8398 276.1 80.3566 263.511 91.4328 254.671L99.4194 258.824C99.5534 258.888 99.7069 258.897 99.8476 258.85C99.9883 258.803 100.105 258.703 100.174 258.572C100.243 258.441 100.258 258.288 100.216 258.146C100.175 258.004 100.079 257.883 99.9506 257.81C91.2862 253.321 91.5579 253.297 91.1366 253.467C90.0626 254.276 89.0332 255.143 88.0531 256.064C74.3574 248.464 73.1515 247.738 72.8279 247.629C71.6987 246.321 70.4742 245.099 69.1643 243.972C67.0091 242.104 64.5764 240.582 61.9532 239.459C61.1658 239.138 60.2874 239.118 59.4864 239.404C44.9176 244.523 24.6458 248.692 1.83391 260.708C1.22219 261.031 0.722161 261.531 0.398923 262.142C0.075684 262.752 -0.0557865 263.446 0.021628 264.133C0.0990425 264.819 0.381756 265.467 0.832959 265.991C1.28416 266.515 1.88295 266.891 2.55136 267.07C19.5937 271.578 37.1283 273.968 54.7573 274.186L72.4066 283.806ZM72.7119 282.667L55.6854 273.381C61.709 259.245 66.0839 253.032 72.8615 248.942L87.1861 256.889C80.123 264.023 75.1221 272.93 72.7119 282.667Z" fill="#000001"/>
<path d="M168.204 315.431C163.908 320.941 157.776 324.729 150.92 326.108C144.064 327.488 136.94 326.367 130.841 322.949L117.408 315.431H168.204Z" fill="#E6E7E8"/>
<path d="M255.72 315.431L243.374 389.176C230.104 392.75 215.955 390.929 204.027 384.111L211.507 315.431H255.72Z" fill="#E6E7E8"/>
<path d="M231.482 253.623H145.889C147.079 248.138 148.737 240.745 149.409 235.513C151.546 218.987 163.382 202.846 168.374 196.784H191.442L195.53 209.132C196.818 213.023 199.358 216.381 202.755 218.682C206.153 220.984 210.217 222.1 214.315 221.858L231.482 253.623Z" fill="#E6E7E8"/>
<path d="M458.192 420.959H453.155L437.89 362.786C437.858 362.663 437.786 362.555 437.685 362.478C437.585 362.4 437.461 362.359 437.334 362.359H430.648C430.517 362.359 430.39 362.403 430.288 362.485C430.186 362.568 430.116 362.682 430.089 362.81L417.441 420.959H412.419C412.266 420.959 412.119 421.02 412.011 421.128C411.903 421.236 411.842 421.382 411.842 421.535V431.896C411.843 432.048 411.904 432.194 412.012 432.301C412.12 432.408 412.266 432.469 412.419 432.469H458.177C458.329 432.469 458.475 432.408 458.583 432.301C458.69 432.193 458.751 432.048 458.751 431.896V421.535C458.751 421.385 458.693 421.241 458.588 421.134C458.484 421.026 458.342 420.964 458.192 420.959ZM428.777 374.311L441.373 380.546L445.953 398.004L425.803 388.03L428.777 374.311ZM422.277 404.208L451.347 418.597L451.94 420.858H418.662L422.277 404.208Z" fill="#199259"/>
<path d="M197.292 94.3279L196.102 95.1324C197.424 95.491 198.599 96.2601 199.455 97.3284C200.312 98.3968 200.806 99.7092 200.867 101.076C200.927 102.443 200.551 103.794 199.792 104.933C199.033 106.073 197.931 106.942 196.645 107.416L196.904 108.54C198.358 108.026 199.621 107.085 200.528 105.84C201.435 104.595 201.943 103.106 201.985 101.567C202.027 100.028 201.601 98.5132 200.763 97.221C199.926 95.9288 198.716 94.9201 197.292 94.3279Z" fill="#199259"/>
<path d="M247.754 170.465V147.781H209.287C209.135 147.781 208.989 147.72 208.881 147.613C208.773 147.505 208.713 147.36 208.713 147.208C208.713 147.056 208.773 146.91 208.881 146.803C208.989 146.695 209.135 146.635 209.287 146.635H248.328C248.404 146.635 248.478 146.65 248.548 146.678C248.618 146.707 248.681 146.749 248.734 146.803C248.788 146.856 248.83 146.919 248.859 146.988C248.887 147.058 248.902 147.132 248.902 147.208V170.465C248.902 170.617 248.842 170.762 248.734 170.87C248.627 170.977 248.481 171.038 248.328 171.038C248.176 171.038 248.03 170.977 247.923 170.87C247.815 170.762 247.754 170.617 247.754 170.465Z" fill="#199259"/>
<path d="M208.795 338.139H181.474C181.322 338.139 181.176 338.079 181.068 337.972C180.961 337.864 180.9 337.718 180.9 337.567C180.9 337.415 180.961 337.269 181.068 337.161C181.176 337.054 181.322 336.994 181.474 336.994H208.795C208.948 336.994 209.094 337.054 209.201 337.161C209.309 337.269 209.369 337.415 209.369 337.567C209.369 337.718 209.309 337.864 209.201 337.972C209.094 338.079 208.948 338.139 208.795 338.139Z" fill="#199259"/>
<path d="M181.48 338.14C170.175 338.148 159.264 333.992 150.837 326.469C150.724 326.367 150.656 326.225 150.647 326.073C150.639 325.921 150.691 325.773 150.793 325.66C150.895 325.546 151.037 325.478 151.189 325.47C151.341 325.462 151.49 325.514 151.604 325.615C159.819 332.95 170.457 337.002 181.48 336.994C181.632 336.994 181.778 337.054 181.886 337.162C181.994 337.269 182.054 337.415 182.054 337.567C182.054 337.719 181.994 337.864 181.886 337.972C181.778 338.079 181.632 338.14 181.48 338.14Z" fill="#199259"/>
<path d="M495.273 315.139C491.279 321.784 485.634 327.288 478.884 331.118C472.135 334.947 464.509 336.972 456.745 336.997H252.195C252.043 336.997 251.897 337.057 251.789 337.165C251.682 337.272 251.621 337.418 251.621 337.57C251.621 337.722 251.682 337.868 251.789 337.975C251.897 338.082 252.043 338.143 252.195 338.143H456.745C464.708 338.119 472.53 336.044 479.454 332.117C486.378 328.191 492.169 322.546 496.266 315.73C496.304 315.665 496.33 315.593 496.341 315.518C496.352 315.443 496.348 315.367 496.33 315.293C496.311 315.22 496.278 315.151 496.233 315.09C496.188 315.029 496.131 314.978 496.066 314.939C496 314.9 495.928 314.875 495.853 314.864C495.778 314.853 495.702 314.857 495.628 314.875C495.554 314.894 495.485 314.927 495.424 314.972C495.364 315.017 495.312 315.074 495.273 315.139Z" fill="#199259"/>
<path d="M502.735 115.982C502.721 103.812 497.871 92.1432 489.249 83.5369C480.628 74.9307 468.938 70.0892 456.744 70.0747H181.479C169.284 70.0884 157.594 74.9294 148.971 83.5357C140.348 92.142 135.497 103.811 135.482 115.982V253.623C135.493 253.768 135.558 253.904 135.665 254.003C135.772 254.102 135.912 254.157 136.058 254.157C136.204 254.157 136.344 254.102 136.451 254.003C136.558 253.904 136.623 253.768 136.633 253.623V126.322H175.101C175.253 126.322 175.399 126.261 175.507 126.154C175.614 126.047 175.675 125.901 175.675 125.749C175.675 125.597 175.614 125.451 175.507 125.344C175.399 125.236 175.253 125.176 175.101 125.176H136.633V115.982C136.647 104.115 141.376 92.7376 149.783 84.3461C158.191 75.9546 169.589 71.2342 181.479 71.2205H456.744C468.634 71.2342 480.033 75.9546 488.44 84.3461C496.847 92.7376 501.576 104.115 501.59 115.982V125.176H193.214C193.062 125.176 192.916 125.236 192.808 125.344C192.701 125.451 192.64 125.597 192.64 125.749C192.64 125.901 192.701 126.047 192.808 126.154C192.916 126.261 193.062 126.322 193.214 126.322H501.584V253.623C501.594 253.768 501.659 253.904 501.766 254.003C501.873 254.102 502.013 254.157 502.159 254.157C502.305 254.157 502.445 254.102 502.552 254.003C502.659 253.904 502.724 253.768 502.735 253.623V115.982Z" fill="#199259"/>
<path d="M216.312 108.958C214.807 108.958 213.335 108.513 212.084 107.678C210.832 106.843 209.857 105.657 209.281 104.269C208.704 102.881 208.554 101.353 208.847 99.8795C209.141 98.4058 209.866 97.0522 210.93 95.9897C211.995 94.9273 213.351 94.2038 214.827 93.9106C216.304 93.6175 217.834 93.7679 219.225 94.3429C220.616 94.9179 221.804 95.8916 222.641 97.1409C223.477 98.3902 223.923 99.859 223.923 101.362C223.918 103.375 223.114 105.304 221.688 106.727C220.262 108.151 218.329 108.953 216.312 108.958ZM216.312 94.9135C215.034 94.9135 213.784 95.2919 212.721 96.0009C211.658 96.7099 210.83 97.7176 210.341 98.8966C209.852 100.076 209.724 101.373 209.974 102.624C210.223 103.876 210.839 105.025 211.743 105.927C212.647 106.829 213.799 107.444 215.053 107.692C216.307 107.941 217.607 107.813 218.788 107.324C219.969 106.835 220.978 106.008 221.688 104.946C222.397 103.885 222.776 102.638 222.775 101.362C222.774 99.6514 222.092 98.0118 220.88 96.8028C219.669 95.5938 218.026 94.9143 216.312 94.9135Z" fill="#199259"/>
<path d="M480.739 210.311H389.883C389.73 210.311 389.584 210.251 389.477 210.143C389.369 210.036 389.309 209.89 389.309 209.738V147.208C389.309 147.056 389.369 146.91 389.477 146.803C389.584 146.695 389.73 146.635 389.883 146.635H480.739C480.892 146.635 481.037 146.695 481.145 146.803C481.253 146.91 481.313 147.056 481.313 147.208V209.738C481.313 209.89 481.253 210.036 481.145 210.143C481.037 210.251 480.892 210.311 480.739 210.311ZM390.46 209.165H480.165V147.781H390.46V209.165Z" fill="#199259"/>
<path d="M390 209.5L480.5 147.5" stroke="#199259"/>
<path d="M480.5 209.5L390 147.5" stroke="#199259"/>
<path d="M159.031 210.311H157.474C157.322 210.311 157.176 210.251 157.068 210.143C156.961 210.036 156.9 209.89 156.9 209.738V147.208C156.9 147.056 156.961 146.91 157.068 146.803C157.176 146.695 157.322 146.635 157.474 146.635H168.954C169.106 146.635 169.252 146.695 169.359 146.803C169.467 146.91 169.528 147.056 169.528 147.208C169.528 147.36 169.467 147.505 169.359 147.613C169.252 147.72 169.106 147.781 168.954 147.781H158.048V209.165H159.031C159.184 209.165 159.33 209.226 159.437 209.333C159.545 209.441 159.605 209.586 159.605 209.738C159.605 209.89 159.545 210.036 159.437 210.143C159.33 210.251 159.184 210.311 159.031 210.311Z" fill="#199259"/>
<path d="M368.178 253.623V231.892H270.037V253.623C270.037 253.775 269.976 253.92 269.868 254.028C269.761 254.135 269.615 254.196 269.463 254.196C269.31 254.196 269.164 254.135 269.057 254.028C268.949 253.92 268.889 253.775 268.889 253.623V231.319C268.889 231.168 268.949 231.022 269.057 230.914C269.164 230.807 269.31 230.747 269.463 230.747H368.755C368.907 230.747 369.053 230.807 369.161 230.914C369.268 231.022 369.329 231.168 369.329 231.319V253.623C369.318 253.768 369.253 253.904 369.146 254.003C369.039 254.102 368.899 254.157 368.753 254.157C368.607 254.157 368.467 254.102 368.36 254.003C368.254 253.904 368.188 253.768 368.178 253.623Z" fill="#199259"/>
<path d="M480.17 253.623V231.892H390.467V253.623C390.457 253.768 390.392 253.904 390.285 254.003C390.178 254.102 390.038 254.157 389.892 254.157C389.746 254.157 389.606 254.102 389.499 254.003C389.392 253.904 389.327 253.768 389.316 253.623V231.319C389.316 231.168 389.377 231.022 389.485 230.914C389.592 230.807 389.738 230.747 389.89 230.747H480.744C480.896 230.747 481.042 230.807 481.15 230.914C481.258 231.022 481.318 231.168 481.318 231.319V253.623C481.318 253.775 481.258 253.92 481.15 254.028C481.042 254.135 480.896 254.196 480.744 254.196C480.592 254.196 480.446 254.135 480.338 254.028C480.23 253.92 480.17 253.775 480.17 253.623Z" fill="#199259"/>
<path d="M247.753 253.623V231.892H219.422C219.269 231.892 219.123 231.832 219.016 231.725C218.908 231.617 218.848 231.471 218.848 231.319C218.848 231.168 218.908 231.022 219.016 230.914C219.123 230.807 219.269 230.747 219.422 230.747H248.327C248.403 230.747 248.477 230.761 248.547 230.79C248.617 230.819 248.68 230.861 248.733 230.914C248.786 230.968 248.829 231.031 248.857 231.1C248.886 231.17 248.901 231.244 248.901 231.319V253.623C248.901 253.775 248.841 253.92 248.733 254.028C248.625 254.135 248.479 254.196 248.327 254.196C248.175 254.196 248.029 254.135 247.921 254.028C247.814 253.92 247.753 253.775 247.753 253.623Z" fill="#199259"/>
<path d="M369.32 147.175C369.277 146.769 369.146 146.83 368.658 146.812C360.827 146.535 269.436 146.529 269.13 146.736C268.74 147.013 268.883 145.925 268.883 181.475C268.883 181.627 268.944 181.773 269.051 181.88C269.159 181.987 269.305 182.048 269.457 182.048C269.609 182.048 269.755 181.987 269.863 181.88C269.971 181.773 270.031 181.627 270.031 181.475V148.259L318.027 178.483L314.205 180.89C314.083 180.974 313.998 181.101 313.968 181.246C313.938 181.391 313.966 181.541 314.045 181.667C314.123 181.792 314.248 181.881 314.391 181.917C314.535 181.953 314.687 181.932 314.815 181.859L319.089 179.162L366.749 209.175H271.442L274.623 207.173C274.752 207.092 274.844 206.963 274.878 206.815C274.912 206.667 274.885 206.511 274.804 206.382C274.723 206.253 274.594 206.162 274.446 206.128C274.297 206.094 274.141 206.12 274.012 206.201L270.043 208.706V207.517C270.043 207.365 269.983 207.22 269.875 207.112C269.768 207.005 269.622 206.944 269.469 206.944C269.317 206.944 269.171 207.005 269.063 207.112C268.956 207.22 268.895 207.365 268.895 207.517V209.739C268.987 210.653 264.484 210.312 368.761 210.312C369.644 210.312 369.335 213.228 369.335 147.208L369.32 147.175ZM271.445 147.784H366.762L319.102 177.8L271.445 147.784ZM368.175 208.706L320.179 178.473L368.175 148.25V208.706Z" fill="#199259"/>
<path d="M93.6318 185.052H81.081V172.503C81.081 172.354 81.0215 172.21 80.9156 172.105C80.8097 171.999 80.666 171.939 80.5162 171.939C80.3664 171.939 80.2228 171.999 80.1169 172.105C80.0109 172.21 79.9514 172.354 79.9514 172.503V185.031H67.3793C67.2295 185.031 67.0858 185.09 66.9799 185.196C66.874 185.302 66.8145 185.445 66.8145 185.594C66.8145 185.744 66.874 185.887 66.9799 185.993C67.0858 186.099 67.2295 186.158 67.3793 186.158H79.9331V198.704C79.9331 198.853 79.9926 198.997 80.0985 199.103C80.2045 199.208 80.3481 199.268 80.4979 199.268C80.6477 199.268 80.7914 199.208 80.8973 199.103C81.0032 198.997 81.0627 198.853 81.0627 198.704V186.18H93.6349C93.7847 186.179 93.9282 186.119 94.0338 186.013C94.1395 185.907 94.1986 185.764 94.1982 185.614C94.1978 185.465 94.1379 185.321 94.0317 185.216C93.9254 185.111 93.7816 185.052 93.6318 185.052Z" fill="#199259"/>
<path d="M544.438 133.581C544.296 131.965 544.637 130.343 545.419 128.921C546.2 127.499 547.387 126.341 548.828 125.592C550.269 124.843 551.901 124.537 553.516 124.714C555.131 124.89 556.658 125.541 557.903 126.583C559.148 127.626 560.055 129.013 560.509 130.571C560.964 132.128 560.946 133.785 560.457 135.331C559.968 136.878 559.031 138.246 557.764 139.261C556.496 140.276 554.956 140.893 553.337 141.034C552.262 141.128 551.18 141.01 550.151 140.687C549.122 140.363 548.167 139.84 547.34 139.148C546.514 138.456 545.832 137.608 545.334 136.652C544.836 135.697 544.531 134.653 544.438 133.581ZM552.006 125.837C550.613 125.959 549.287 126.491 548.197 127.365C547.107 128.239 546.301 129.416 545.881 130.748C545.462 132.079 545.447 133.505 545.84 134.845C546.232 136.184 547.014 137.378 548.086 138.274C549.158 139.17 550.472 139.728 551.863 139.878C553.253 140.029 554.657 139.764 555.896 139.118C557.135 138.471 558.155 137.472 558.825 136.248C559.496 135.023 559.787 133.627 559.663 132.237C559.581 131.314 559.318 130.416 558.888 129.594C558.458 128.773 557.87 128.044 557.158 127.45C556.446 126.855 555.623 126.407 554.737 126.13C553.851 125.854 552.918 125.754 551.994 125.837H552.006Z" fill="#199259"/>
<path d="M365.555 29.244L371.698 15.5952H360.762C360.667 15.588 360.574 15.5586 360.492 15.5092C360.41 15.4598 360.341 15.3919 360.29 15.3109C360.24 15.23 360.209 15.1382 360.2 15.0431C360.191 14.9479 360.205 14.8521 360.24 14.7632L366.746 0.33733C366.777 0.2687 366.821 0.206851 366.876 0.155313C366.931 0.103776 366.996 0.0635573 367.067 0.0369583C367.137 0.0103593 367.212 -0.00210054 367.288 0.000288695C367.363 0.00267794 367.437 0.0198707 367.506 0.0508845C367.575 0.0818982 367.637 0.126128 367.689 0.181044C367.74 0.235961 367.78 0.300489 367.807 0.370948C367.834 0.441407 367.846 0.516418 367.844 0.591692C367.841 0.666967 367.824 0.741034 367.793 0.809664L361.651 14.4555C368.865 14.4555 371.42 14.4098 372.388 14.4555C373.096 14.4981 373.304 14.7145 373.023 15.4337C372.611 16.5124 371.13 19.6511 366.612 29.7011C366.582 29.7703 366.538 29.833 366.484 29.8855C366.43 29.9379 366.365 29.9792 366.295 30.007C366.225 30.0347 366.15 30.0483 366.074 30.0471C365.998 30.0458 365.924 30.0298 365.855 29.9997C365.785 29.9697 365.722 29.9264 365.67 29.8722C365.617 29.8179 365.576 29.7539 365.548 29.6837C365.52 29.6136 365.507 29.5386 365.508 29.4632C365.509 29.3877 365.525 29.3133 365.555 29.244Z" fill="#199259"/>
<path d="M174.688 103.525C175.39 104.083 176.224 104.451 177.109 104.595C178.33 104.756 178.596 103.723 178.688 102.492C178.779 101.261 178.327 101.489 178.056 101.532C177.976 101.547 175.003 102.641 174.844 102.751C174.722 102.834 174.638 102.962 174.609 103.106C174.58 103.251 174.608 103.401 174.688 103.525Z" fill="#000001"/>
<path d="M201.157 234.94C193.081 254.976 193.542 253.58 193.79 253.946C194.037 254.311 193.857 254.196 198.98 254.196C199.118 254.196 199.251 254.146 199.355 254.056C199.46 253.966 199.528 253.841 199.548 253.705L202.24 235.235C202.248 235.104 202.211 234.974 202.134 234.867C202.057 234.76 201.946 234.683 201.819 234.648C201.692 234.614 201.556 234.624 201.436 234.677C201.315 234.73 201.217 234.823 201.157 234.94Z" fill="#000001"/>
<path d="M117.142 315.931L130.575 323.449C136.803 326.898 144.057 328.021 151.039 326.616C158.02 325.212 164.273 321.372 168.676 315.785C168.722 315.725 168.756 315.656 168.776 315.583C168.796 315.51 168.801 315.434 168.791 315.359C168.782 315.284 168.757 315.211 168.719 315.145C168.681 315.08 168.631 315.022 168.571 314.976C168.511 314.93 168.442 314.896 168.369 314.876C168.295 314.856 168.219 314.851 168.144 314.861C168.068 314.871 167.996 314.895 167.93 314.933C167.864 314.971 167.807 315.021 167.76 315.081C163.527 320.455 157.515 324.147 150.801 325.498C144.088 326.848 137.112 325.767 131.124 322.45L117.691 314.932C117.56 314.876 117.413 314.871 117.279 314.918C117.144 314.964 117.032 315.059 116.963 315.183C116.895 315.308 116.875 315.453 116.908 315.592C116.941 315.73 117.024 315.851 117.142 315.931Z" fill="#000001"/>
<path d="M315.119 179.894C314.563 178.772 312.909 178.623 310.692 179.495C307.753 180.519 304.759 181.383 301.726 182.082C304.345 180.643 311.138 176.926 309.7 174.323C307.929 171.121 301.869 177.133 287.01 179.891C291.895 173.555 293.727 169.728 292.436 168.512C291.233 167.378 288.027 169.07 282.901 173.549C277.736 177.951 271.451 180.838 264.742 181.89C264.4 181.161 263.992 180.465 263.521 179.811C263.164 179.598 264.879 179.403 222.376 186.72C217.537 172.01 214.81 159.62 212.225 152.48L227.157 174.354C227.48 174.826 225.059 175.055 268.897 167.509V166.348L227.896 173.406C208.243 144.603 207.923 143.951 207.618 143.719C203.499 138.667 197.302 136.226 186.161 134.596C185.787 131.847 186.049 129.049 186.928 126.417C188.065 126.842 189.262 127.089 190.475 127.148C191.446 127.15 192.403 126.909 193.256 126.446C194.109 125.983 194.833 125.314 195.36 124.5C199.372 118.865 198.367 104.881 193.33 96.2636C193.253 96.1323 193.127 96.0368 192.979 95.9982C192.832 95.9597 192.675 95.9811 192.544 96.0579C192.412 96.1347 192.316 96.2605 192.278 96.4076C192.239 96.5548 192.261 96.7113 192.337 96.8426C198.337 107.106 198.709 127.712 189.376 125.892L186.711 125.167C185.133 124.428 183.603 123.589 182.131 122.656C181.826 122.483 181.057 122.684 181.252 123.302C181.35 123.607 182.473 125.435 185.013 129.799C184.705 131.304 184.666 132.852 184.897 134.37L173.812 132.405C177.631 120.215 177.418 118.692 175.485 109.592C175.462 109.486 175.409 109.389 175.333 109.311C175.257 109.234 175.16 109.179 175.055 109.154C174.44 109.046 173.854 108.816 173.33 108.479C172.806 108.142 172.354 107.704 172.002 107.191C171.116 105.741 171.806 104.982 171.537 104.449L171.47 104.36C171.055 103.998 170.89 104.199 169.333 104.787C169.196 104.846 169.087 104.955 169.028 105.092C168.631 106.244 174.114 118.125 175.439 121.824C174.199 127.442 172.624 132.981 170.722 138.411C164.908 157.265 163.88 177.266 167.733 196.614C165.883 198.747 151.44 215.812 148.86 235.431C148.152 240.791 147.095 246.87 145.709 253.501C145.684 253.648 145.717 253.798 145.801 253.92C145.885 254.043 146.013 254.128 146.159 254.158C146.305 254.188 146.456 254.161 146.582 254.081C146.708 254.002 146.798 253.877 146.833 253.733C148.225 247.074 149.275 240.968 149.999 235.58C152.545 216.218 166.9 199.317 168.622 197.352H191.043L195.012 209.309C196.321 213.259 198.883 216.677 202.31 219.045C205.737 221.414 209.842 222.606 214.008 222.44C232.13 255.96 230.952 254.132 231.483 254.132C231.582 254.132 231.68 254.107 231.766 254.058C231.853 254.009 231.925 253.939 231.976 253.854C232.027 253.769 232.055 253.672 232.058 253.573C232.06 253.473 232.037 253.375 231.99 253.288L215.22 222.352C215.91 222.279 269.022 211.811 269.331 211.549C269.711 210.413 269.934 209.229 269.993 208.032C282.385 206.006 294.602 203.027 306.534 199.122C309.355 198.101 310.872 196.788 310.589 195.606C310.442 194.996 309.725 194.048 306.546 194.442C305.859 194.527 305.118 194.582 304.26 194.621C306.568 193.96 308.837 193.169 311.056 192.254C316.875 189.758 315.516 185.833 310.427 187.073C309.352 187.332 307.23 187.759 304.669 188.167C307.158 187.119 309.582 185.923 311.929 184.587C314.509 183.023 315.76 181.189 315.119 179.894ZM268.457 210.641L216.728 220.965C212.408 221.826 207.922 221.08 204.115 218.868C200.308 216.656 197.442 213.13 196.059 208.956L183.737 171.703C183.689 171.559 183.586 171.44 183.45 171.373C183.314 171.305 183.157 171.293 183.013 171.341C182.869 171.388 182.749 171.491 182.681 171.626C182.612 171.761 182.6 171.918 182.647 172.062L190.634 196.212H168.799C165.027 177.11 166.057 157.372 171.797 138.764C172.292 137.158 173.449 133.517 173.449 133.517L185.661 135.683C196.868 137.296 202.864 139.593 206.818 144.56L208.482 146.998C212.896 154.531 214.557 166.742 221.442 187.561C221.48 187.675 221.553 187.775 221.651 187.845C221.749 187.916 221.867 187.954 221.988 187.954C222.293 187.954 225.081 187.43 262.898 180.921C267.88 189.982 269.828 200.396 268.457 210.641ZM294.017 191.163C293.89 191.208 293.783 191.297 293.715 191.413C293.647 191.529 293.622 191.665 293.645 191.798C293.667 191.931 293.736 192.051 293.838 192.138C293.941 192.226 294.071 192.274 294.206 192.275C294.57 192.275 300.007 190.108 300.636 189.837C304.023 189.464 307.386 188.904 310.711 188.158C312.668 187.686 313.583 188.076 313.703 188.432C314.652 191.278 297.751 195.234 294.774 195.831C294.632 195.868 294.51 195.958 294.433 196.082C294.355 196.206 294.328 196.355 294.357 196.498C294.386 196.642 294.469 196.768 294.588 196.853C294.708 196.937 294.855 196.973 295 196.952C299.213 196.105 299.5 195.798 299.808 195.849C302.111 195.873 304.413 195.778 306.705 195.563C308.882 195.295 309.453 195.755 309.489 195.868C309.544 196.099 308.83 197.087 306.162 198.04C294.388 201.904 282.331 204.848 270.1 206.847C270.382 198.629 268.736 190.459 265.291 182.99C272.079 181.831 278.429 178.866 283.67 174.409C289.428 169.374 291.434 169.134 291.657 169.341C291.987 169.646 291.553 172.275 285.478 180.006C285.439 180.057 285.409 180.114 285.389 180.174C284.247 180.357 283.07 180.513 281.857 180.643C281.782 180.651 281.709 180.674 281.643 180.71C281.577 180.746 281.518 180.795 281.471 180.853C281.424 180.912 281.388 180.979 281.367 181.051C281.346 181.124 281.339 181.199 281.347 181.274C281.355 181.349 281.378 181.421 281.414 181.488C281.45 181.554 281.499 181.612 281.557 181.659C281.616 181.706 281.684 181.742 281.756 181.763C281.828 181.784 281.904 181.791 281.979 181.783C298.96 179.985 307.587 172.848 308.705 174.878C308.882 175.183 308.506 176.371 306.229 177.974C302.142 180.72 297.78 183.035 293.214 184.882C293.077 184.942 292.969 185.053 292.913 185.192C292.857 185.33 292.858 185.485 292.914 185.623C292.971 185.761 293.079 185.872 293.216 185.931C293.353 185.991 293.508 185.995 293.648 185.943C294.811 185.47 296.145 184.885 297.558 184.215C302.154 183.28 306.686 182.059 311.129 180.558C312.991 179.821 313.941 180.067 314.102 180.397C314.338 180.875 313.629 182.225 311.355 183.584C305.772 186.535 299.976 189.069 294.017 191.163Z" fill="#000001"/>
<path d="M579.511 431.326H267.679C268.068 430.776 268.235 430.101 268.149 429.434C268.062 428.767 267.728 428.157 267.212 427.724C261.921 423.239 248.284 412.451 235.431 408.612L238.023 390.703C239.812 390.45 241.647 390.127 243.5 389.734C244.11 389.545 243.194 393.655 255.593 320.916C255.899 319.113 256.113 317.296 256.234 315.471C256.239 315.322 256.186 315.177 256.086 315.066C255.987 314.956 255.847 314.888 255.698 314.878C255.549 314.868 255.403 314.917 255.289 315.013C255.175 315.11 255.103 315.246 255.089 315.395C254.832 319.234 255.043 317.287 246.064 369.941C232.741 371.425 219.254 369.825 206.65 365.264L212.06 315.553C212.069 315.478 212.062 315.403 212.041 315.331C212.02 315.258 211.985 315.191 211.938 315.132C211.891 315.074 211.833 315.025 211.767 314.989C211.701 314.953 211.628 314.93 211.553 314.922C211.402 314.909 211.252 314.955 211.134 315.05C211.015 315.144 210.938 315.281 210.918 315.431C202.892 389.075 203.329 384.172 203.591 384.477C204.865 385.308 206.191 386.057 207.56 386.72L204.019 408.925C201.954 414.809 200.692 420.944 200.267 427.164C200.217 427.969 200.375 428.774 200.726 429.5C201.078 430.227 201.61 430.852 202.272 431.314H54.3585C53.9342 431.314 53.1923 432.63 54.5631 432.633C61.9421 432.661 122.3 432.46 579.511 432.46C579.647 432.44 579.772 432.372 579.862 432.267C579.952 432.163 580.001 432.03 580.001 431.893C580.001 431.755 579.952 431.623 579.862 431.519C579.772 431.414 579.647 431.346 579.511 431.326ZM245.863 371.127L242.865 388.694C227.865 391.8 215.003 390.157 204.632 383.819L206.522 366.449C219.111 370.964 232.564 372.563 245.863 371.127ZM236.841 390.858L234.261 408.673C224.762 411.273 214.736 411.273 205.237 408.673L208.659 387.247C217.534 391.044 227.294 392.294 236.841 390.858Z" fill="#000001"/>
<path d="M188.203 212.542C182.81 220.186 174.882 225.681 165.822 228.053C165.676 228.099 165.556 228.201 165.486 228.337C165.416 228.472 165.403 228.63 165.449 228.775C165.496 228.92 165.598 229.041 165.734 229.11C165.87 229.18 166.028 229.193 166.173 229.147C176.803 225.761 184.54 220.383 189.171 213.16C189.212 213.097 189.239 213.026 189.253 212.952C189.266 212.878 189.265 212.802 189.248 212.728C189.232 212.655 189.202 212.585 189.159 212.523C189.115 212.461 189.06 212.409 188.997 212.368C188.933 212.328 188.862 212.3 188.788 212.287C188.714 212.273 188.638 212.275 188.564 212.291C188.49 212.307 188.421 212.337 188.359 212.381C188.297 212.424 188.244 212.478 188.203 212.542Z" fill="#000001"/>
<path d="M201.569 91.08C201.309 90.8164 200.983 90.627 200.625 90.5316C200.267 90.4363 199.89 90.4383 199.533 90.5375L194.12 92.567C193.335 90.8365 192.209 89.2816 190.808 87.9957C189.408 86.7097 187.761 85.719 185.968 85.0829C186.241 84.7001 186.416 84.2561 186.476 83.7902C186.536 83.3242 186.48 82.8506 186.313 82.4113C186.146 81.972 185.873 81.5805 185.519 81.2716C185.164 80.9626 184.739 80.7456 184.28 80.6399C180.782 79.9431 177.16 80.2139 173.805 81.4231C170.766 82.526 168.056 84.3795 165.928 86.8107C165.631 87.1507 165.418 87.5564 165.308 87.9945C165.198 88.4325 165.194 88.8904 165.297 89.3303C165.399 89.7702 165.605 90.1795 165.896 90.5245C166.188 90.8695 166.558 91.1403 166.976 91.3146C165.395 93.5464 164.431 96.1544 164.181 98.8762C163.93 101.598 164.403 104.338 165.55 106.819C165.593 106.924 165.667 107.014 165.761 107.078C165.856 107.141 165.967 107.175 166.081 107.176C166.386 107.145 202.412 93.338 200.809 93.9749C201.09 93.8799 201.344 93.7165 201.546 93.4996C201.749 93.2826 201.895 93.0188 201.97 92.7318C202.045 92.4449 202.048 92.1437 201.978 91.8554C201.908 91.5671 201.768 91.3006 201.569 91.08Z" fill="#199259"/>
</svg>
