<svg width="164" height="52" viewBox="0 0 164 52" fill="none" xmlns="http://www.w3.org/2000/svg">
<path d="M85.28 34.4C84.96 34.4 84.68 34.28 84.44 34.04L83.08 32.56C81.9333 33.12 80.6933 33.4 79.36 33.4C77.8133 33.4 76.4 33.04 75.12 32.32C73.8667 31.5733 72.8667 30.5733 72.12 29.32C71.3733 28.04 71 26.6 71 25C71 23.32 71.3733 21.8533 72.12 20.6C72.8667 19.3467 73.8667 18.3733 75.12 17.68C76.4 16.96 77.8133 16.6 79.36 16.6C80.9067 16.6 82.2933 16.96 83.52 17.68C84.7733 18.3733 85.76 19.3467 86.48 20.6C87.2267 21.8533 87.6 23.32 87.6 25C87.6 26.2 87.3867 27.32 86.96 28.36C86.56 29.3733 85.9867 30.2533 85.24 31L86.24 31.92C86.5867 32.2667 86.76 32.6133 86.76 32.96C86.76 33.28 86.64 33.5867 86.4 33.88C86.1067 34.2267 85.7333 34.4 85.28 34.4ZM79.36 30.96C80 30.96 80.6 30.8533 81.16 30.64L79.84 29.36C79.4933 29.04 79.32 28.6667 79.32 28.24C79.32 27.8933 79.4267 27.6 79.64 27.36C79.9867 27.0667 80.3467 26.92 80.72 26.92C81.0933 26.92 81.4 27.04 81.64 27.28L83.32 29.12C84.28 27.9733 84.76 26.6 84.76 25C84.76 23.2933 84.2533 21.88 83.24 20.76C82.2267 19.64 80.9333 19.08 79.36 19.08C77.76 19.08 76.4533 19.64 75.44 20.76C74.4267 21.88 73.92 23.2933 73.92 25C73.92 26.0667 74.1467 27.0533 74.6 27.96C75.0533 28.8667 75.6933 29.6 76.52 30.16C77.3467 30.6933 78.2933 30.96 79.36 30.96ZM92.1984 33.4C91.8518 33.4 91.5318 33.2933 91.2384 33.08C90.9718 32.8667 90.8384 32.56 90.8384 32.16V22.56C90.8384 22.1067 90.9718 21.7733 91.2384 21.56C91.5318 21.32 91.8518 21.2 92.1984 21.2C92.5451 21.2 92.8518 21.32 93.1184 21.56C93.4118 21.7733 93.5584 22.1067 93.5584 22.56V32.16C93.5584 32.56 93.4118 32.8667 93.1184 33.08C92.8518 33.2933 92.5451 33.4 92.1984 33.4ZM92.2384 19C91.7318 19 91.2918 18.84 90.9184 18.52C90.5718 18.1733 90.3984 17.76 90.3984 17.28C90.3984 16.8267 90.5718 16.44 90.9184 16.12C91.2918 15.7733 91.7318 15.6 92.2384 15.6C92.7184 15.6 93.1318 15.7733 93.4784 16.12C93.8251 16.44 93.9984 16.8267 93.9984 17.28C93.9984 17.76 93.8251 18.1733 93.4784 18.52C93.1318 18.84 92.7184 19 92.2384 19ZM102.134 33.4C101.094 33.4 100.241 33.08 99.5741 32.44C98.9074 31.8 98.5741 30.84 98.5741 29.56V24.48C98.5741 24.2133 98.4407 24.08 98.1741 24.08H97.4541C97.1074 24.08 96.8141 23.9733 96.5741 23.76C96.3341 23.52 96.2141 23.2267 96.2141 22.88C96.2141 22.5067 96.3341 22.2 96.5741 21.96C96.8141 21.72 97.1074 21.6 97.4541 21.6H98.1741C98.4407 21.6 98.5741 21.4667 98.5741 21.2V17.84C98.5741 17.4667 98.6941 17.1733 98.9341 16.96C99.2007 16.72 99.5207 16.6 99.8941 16.6C100.294 16.6 100.614 16.72 100.854 16.96C101.121 17.1733 101.254 17.4667 101.254 17.84V21.2C101.254 21.4667 101.387 21.6 101.654 21.6H103.814C104.134 21.6 104.414 21.72 104.654 21.96C104.894 22.2 105.014 22.5067 105.014 22.88C105.014 23.2267 104.894 23.52 104.654 23.76C104.441 23.9733 104.147 24.08 103.774 24.08H101.654C101.387 24.08 101.254 24.2133 101.254 24.48V29.2C101.254 30.32 101.707 30.88 102.614 30.88C102.881 30.88 103.161 30.84 103.454 30.76C103.747 30.68 103.947 30.64 104.054 30.64C104.427 30.64 104.707 30.76 104.894 31C105.107 31.24 105.214 31.52 105.214 31.84C105.214 32.08 105.147 32.32 105.014 32.56C104.881 32.7733 104.667 32.9333 104.374 33.04C104.081 33.1467 103.707 33.2267 103.254 33.28C102.827 33.36 102.454 33.4 102.134 33.4ZM113.183 33.4C112.037 33.4 111.01 33.1333 110.103 32.6C109.197 32.0667 108.49 31.3333 107.983 30.4C107.477 29.44 107.223 28.3733 107.223 27.2C107.223 26.0533 107.477 25.0267 107.983 24.12C108.49 23.2133 109.197 22.5067 110.103 22C111.01 21.4667 112.037 21.2 113.183 21.2C113.93 21.2 114.597 21.3333 115.183 21.6C115.77 21.84 116.277 22.16 116.703 22.56C116.757 22.1867 116.917 21.9067 117.183 21.72C117.45 21.5067 117.743 21.4 118.063 21.4C118.41 21.4 118.717 21.52 118.983 21.76C119.277 21.9733 119.423 22.3067 119.423 22.76V32.16C119.423 32.56 119.277 32.8667 118.983 33.08C118.717 33.2933 118.41 33.4 118.063 33.4C117.717 33.4 117.397 33.2933 117.103 33.08C116.837 32.8667 116.703 32.56 116.703 32.16V32C116.277 32.4267 115.77 32.76 115.183 33C114.597 33.2667 113.93 33.4 113.183 33.4ZM113.423 30.92C114.437 30.92 115.237 30.5867 115.823 29.92C116.41 29.2267 116.703 28.32 116.703 27.2C116.703 26.1333 116.41 25.28 115.823 24.64C115.237 24 114.437 23.68 113.423 23.68C112.383 23.68 111.543 24 110.903 24.64C110.263 25.28 109.943 26.1333 109.943 27.2C109.943 28.32 110.263 29.2267 110.903 29.92C111.543 30.5867 112.383 30.92 113.423 30.92ZM128.398 33.4C127.251 33.4 126.224 33.1333 125.318 32.6C124.411 32.0667 123.704 31.3333 123.198 30.4C122.691 29.44 122.438 28.3733 122.438 27.2C122.438 26.0533 122.691 25.0267 123.198 24.12C123.704 23.2133 124.411 22.5067 125.318 22C126.224 21.4667 127.251 21.2 128.398 21.2C129.144 21.2 129.811 21.32 130.398 21.56C130.984 21.8 131.491 22.1333 131.918 22.56V16.96C131.918 16.5067 132.051 16.1733 132.318 15.96C132.611 15.72 132.931 15.6 133.278 15.6C133.624 15.6 133.931 15.72 134.198 15.96C134.491 16.1733 134.638 16.5067 134.638 16.96V32.16C134.638 32.56 134.491 32.8667 134.198 33.08C133.931 33.2933 133.624 33.4 133.278 33.4C132.931 33.4 132.611 33.2933 132.318 33.08C132.051 32.8667 131.918 32.56 131.918 32.16V32C131.491 32.4267 130.984 32.76 130.398 33C129.811 33.2667 129.144 33.4 128.398 33.4ZM128.638 30.92C129.651 30.92 130.451 30.5867 131.038 29.92C131.624 29.2267 131.918 28.32 131.918 27.2C131.918 26.1333 131.624 25.28 131.038 24.64C130.451 24 129.651 23.68 128.638 23.68C127.598 23.68 126.758 24 126.118 24.64C125.478 25.28 125.158 26.1333 125.158 27.2C125.158 28.32 125.478 29.2267 126.118 29.92C126.758 30.5867 127.598 30.92 128.638 30.92ZM144.012 33.4C142.012 33.4 140.452 32.8267 139.332 31.68C138.212 30.5333 137.652 28.9867 137.652 27.04C137.652 25.3333 138.212 23.9333 139.332 22.84C140.478 21.7467 141.945 21.2 143.732 21.2C145.465 21.2 146.852 21.7067 147.892 22.72C148.932 23.7067 149.452 24.9333 149.452 26.4C149.452 26.9867 149.292 27.4267 148.972 27.72C148.678 28.0133 148.292 28.16 147.812 28.16H140.852C140.585 28.16 140.492 28.3067 140.572 28.6C140.785 29.3467 141.212 29.9333 141.852 30.36C142.518 30.76 143.265 30.96 144.092 30.96C144.705 30.96 145.292 30.88 145.852 30.72C146.438 30.56 146.945 30.32 147.372 30C147.505 29.8933 147.678 29.84 147.892 29.84C148.185 29.84 148.452 29.9733 148.692 30.24C148.932 30.48 149.052 30.7733 149.052 31.12C149.052 31.28 149.025 31.44 148.972 31.6C148.918 31.76 148.798 31.92 148.612 32.08C147.918 32.5867 147.172 32.9333 146.372 33.12C145.598 33.3067 144.812 33.4 144.012 33.4ZM146.332 26.08C146.492 26.08 146.572 26 146.572 25.84C146.572 25.2267 146.292 24.6933 145.732 24.24C145.198 23.7867 144.532 23.56 143.732 23.56C143.038 23.56 142.372 23.7467 141.732 24.12C141.118 24.4933 140.745 24.9867 140.612 25.6C140.612 25.6 140.612 25.6133 140.612 25.64C140.585 25.7467 140.572 25.84 140.572 25.92C140.598 26 140.718 26.04 140.932 26.04L146.332 26.08ZM157.37 33.4C156.97 33.4 156.597 33.3067 156.25 33.12C155.903 32.96 155.65 32.7067 155.49 32.36L151.53 23.04C151.477 22.8267 151.45 22.6667 151.45 22.56C151.45 22.1333 151.597 21.8 151.89 21.56C152.183 21.32 152.503 21.2 152.85 21.2C153.09 21.2 153.317 21.2667 153.53 21.4C153.77 21.5333 153.943 21.7467 154.05 22.04L156.85 29.28C156.983 29.5467 157.157 29.68 157.37 29.68C157.637 29.68 157.81 29.5467 157.89 29.28L160.65 22.04C160.757 21.7467 160.917 21.5333 161.13 21.4C161.37 21.2667 161.61 21.2 161.85 21.2C162.223 21.2 162.543 21.32 162.81 21.56C163.103 21.8 163.25 22.12 163.25 22.52C163.25 22.6533 163.223 22.8267 163.17 23.04L159.25 32.36C159.09 32.7067 158.837 32.96 158.49 33.12C158.143 33.3067 157.77 33.4 157.37 33.4Z" fill="#272727"/>
<path fill-rule="evenodd" clip-rule="evenodd" d="M0 25.9861C0 40.3378 11.6788 51.9722 26.0853 51.9722C28.9849 51.9722 31.774 51.5009 34.3796 50.631C36.374 51.5111 38.581 52 40.9027 52C46.8281 52 52.0068 48.8155 54.8084 44.0709C53.9836 44.2911 53.1166 44.4086 52.222 44.4086C49.9917 44.4086 47.9325 43.6785 46.2722 42.4453C43.8359 40.6358 42.2582 37.7428 42.2582 34.4827C42.2582 29.0308 46.6706 24.6054 52.1319 24.5573C52.1292 24.5073 52.1263 24.4575 52.1233 24.4076C51.3044 10.7909 39.9598 0 26.0853 0C11.6788 0 0 11.6344 0 25.9861ZM42.1557 25.935C42.1557 34.8049 34.9378 41.9954 26.0341 41.9954C26.0115 41.9954 25.9889 41.9953 25.9664 41.9952C17.0938 41.9589 9.91243 34.7824 9.91243 25.935C9.91243 17.0652 17.1303 9.87472 26.0341 9.87472C32.7873 9.87472 38.5707 14.0112 40.9704 19.8795C41.7347 21.7483 42.1557 23.7927 42.1557 25.935Z" fill="#1CA665"/>
<path d="M52.1942 38.2463C54.2961 38.2463 56 36.5489 56 34.455C56 32.3611 54.2961 30.6636 52.1942 30.6636C52.042 30.6636 51.8919 30.6725 51.7444 30.6898C49.8545 30.9114 48.3883 32.5126 48.3883 34.455C48.3883 35.5534 48.8572 36.5428 49.6066 37.2352C50.2856 37.8627 51.1949 38.2463 52.1942 38.2463Z" fill="#24E68B"/>
</svg>
