<?xml version="1.0" standalone="no"?>
<!DOCTYPE svg PUBLIC "-//W3C//DTD SVG 20010904//EN"
 "http://www.w3.org/TR/2001/REC-SVG-20010904/DTD/svg10.dtd">
<svg version="1.0" xmlns="http://www.w3.org/2000/svg"
 width="900.000000pt" height="900.000000pt" viewBox="0 0 900.000000 900.000000"
 preserveAspectRatio="xMidYMid meet">
<metadata>
Created by potrace 1.14, written by Peter Selinger 2001-2017
</metadata>
<g transform="translate(0.000000,900.000000) scale(0.100000,-0.100000)"
fill="#000000" stroke="none">
<path d="M3900 8065 c-223 -24 -360 -47 -515 -87 -44 -11 -87 -21 -95 -23 -8
-2 -51 -15 -95 -28 -210 -64 -373 -129 -569 -228 -457 -231 -855 -551 -1186
-956 -42 -51 -135 -179 -184 -254 -31 -46 -60 -89 -66 -96 -5 -7 -10 -14 -10
-17 0 -2 -19 -35 -42 -72 -63 -105 -181 -345 -231 -474 -61 -157 -60 -154 -62
-165 -2 -5 -17 -53 -33 -105 -53 -164 -111 -420 -127 -565 -3 -27 -7 -57 -9
-65 -20 -71 -28 -573 -13 -744 41 -460 161 -883 364 -1289 175 -349 379 -632
658 -912 211 -213 334 -316 541 -456 460 -310 1033 -528 1542 -585 26 -3 58
-7 71 -9 138 -24 597 -24 771 -1 14 2 54 7 90 11 36 4 74 9 85 11 11 2 36 6
55 9 38 5 39 5 150 29 81 17 309 78 352 95 21 8 41 4 113 -24 110 -43 225 -79
340 -104 177 -38 258 -46 485 -45 193 0 253 5 383 30 42 9 88 17 101 20 13 2
61 15 107 29 46 14 91 27 99 30 100 28 296 115 390 173 19 12 42 25 50 29 17
7 153 98 179 118 195 157 328 289 437 435 35 47 67 90 72 95 20 26 73 118 69
121 -2 3 -33 -2 -68 -10 -330 -76 -722 -2 -1020 192 -102 67 -109 72 -225 187
-298 296 -440 709 -387 1130 11 93 46 240 73 310 6 17 11 31 11 32 0 2 21 44
46 95 41 82 109 192 138 224 6 6 35 40 65 75 230 269 595 445 958 462 l53 2
-5 80 c-4 44 -8 94 -11 110 -2 17 -7 55 -11 85 -3 30 -7 62 -9 70 -1 8 -5 38
-10 65 -17 108 -76 347 -120 485 -75 233 -189 493 -300 685 -28 50 -163 261
-178 280 -4 6 -24 33 -45 61 -188 258 -442 517 -711 727 -76 59 -306 214 -381
256 -228 128 -490 243 -715 314 -102 33 -321 89 -390 101 -16 3 -59 10 -95 16
-79 14 -97 17 -180 25 -36 4 -76 9 -90 12 -55 11 -550 10 -660 -2z m605 -1364
c39 -5 88 -13 110 -17 83 -13 306 -74 396 -109 311 -121 561 -285 797 -524
269 -272 465 -620 561 -994 34 -129 41 -170 61 -332 8 -71 6 -439 -3 -485 -3
-14 -11 -59 -17 -100 -22 -139 -73 -323 -128 -460 -55 -139 -210 -419 -259
-468 -7 -7 -13 -16 -13 -20 0 -4 -13 -21 -28 -39 -15 -17 -43 -51 -62 -75 -45
-56 -211 -222 -276 -276 -253 -209 -566 -368 -884 -447 -52 -13 -113 -26 -135
-30 -22 -3 -47 -7 -55 -10 -94 -26 -505 -27 -670 -1 -318 48 -600 155 -875
330 -44 28 -87 56 -95 63 -8 6 -53 42 -99 79 -169 135 -328 311 -456 504 -59
89 -180 310 -170 310 3 0 -3 15 -13 33 -20 35 -82 210 -105 297 -13 48 -20 79
-42 190 -3 14 -8 45 -11 70 -3 25 -8 56 -10 70 -12 62 -10 401 2 490 7 52 15
112 18 133 16 110 91 371 138 477 63 142 212 407 248 440 3 3 27 34 55 70 215
281 547 536 880 675 123 52 338 117 431 130 21 4 46 8 54 10 15 4 73 13 170
25 79 9 403 4 485 -9z"/>
<path d="M7673 3831 c-322 -95 -472 -464 -307 -759 33 -59 145 -182 166 -182
6 0 22 -8 36 -18 29 -19 104 -46 162 -58 40 -8 164 -7 191 1 9 3 27 8 39 10
69 13 184 86 253 160 45 48 95 145 112 219 15 65 22 196 11 214 -3 5 -7 19
-10 33 -15 81 -75 186 -142 252 -47 47 -132 99 -199 123 -74 26 -233 29 -312
5z"/>
</g>
</svg>
